<?xml version="1.0" encoding="UTF-8"?><svg id="Lager_1" xmlns="http://www.w3.org/2000/svg" viewBox="0 0 320.2 240"><defs><style>.cls-1{fill:#ee792c;}.cls-2,.cls-3,.cls-4{fill:#fff;}.cls-3{fill-rule:evenodd;}.cls-5{fill:#3a6e82;}.cls-6{fill:#ecc77d;}.cls-4{stroke-width:.5px;}.cls-4,.cls-7{stroke:#fff;stroke-linecap:round;stroke-linejoin:round;}.cls-8{fill:#609760;}.cls-9{stroke:#ee792c;}.cls-9,.cls-10{stroke-miterlimit:10;}.cls-9,.cls-10,.cls-11,.cls-7{fill:none;}.cls-12{fill:#d23f17;}.cls-10{stroke:#648597;}.cls-13{fill:#7d3982;}.cls-14{fill:#b1b1b1;}.cls-15{fill:#84a97e;}.cls-7{stroke-width:.75px;}.cls-16{fill:#7d7c7d;}.cls-17{fill:#602677;}.cls-18{fill:#648597;}</style></defs><rect class="cls-2" width="320.2" height="240"/><circle class="cls-13" cx="269.17" cy="89.45" r="24.43"/><path class="cls-2" d="m275.11,95.79l-12.29-12.29-1.85.12-10.46,12.78c-.91,1.11-.83,2.7.19,3.72l7.55,7.55c1.01,1.01,2.61,1.09,3.72.19l13.08-10.7c.42-.35.46-.98.07-1.37h0Z"/><path class="cls-2" d="m277.78,102.88l-1.6-2.77c-.17-.29-.47-.82-.8-.82s-.63.54-.8.82l-1.6,2.77c-.24.42-.37.9-.37,1.38,0,1.53,1.24,2.77,2.77,2.77s2.77-1.24,2.77-2.77c0-.49-.13-.97-.37-1.38h0Zm0,0"/><path class="cls-16" d="m262.58,79.25c.17.17.23.37.24.45v11.3c1.08.38,1.85,1.41,1.85,2.61,0,1.53-1.24,2.77-2.77,2.77s-2.77-1.24-2.77-2.77c0-1.2.77-2.23,1.85-2.61v-11.32c0-.06.03-.26.2-.44.15-.15.55-.26.72-.26.18,0,.55.13.68.26Z"/><path class="cls-2" d="m261.98,94.6c.51,0,.92-.41.92-.92s-.41-.92-.92-.92-.92.41-.92.92.41.92.92.92h0Z"/><path class="cls-2" d="m281.84,80.14c-.05-.16-.16-.27-.29-.27h-4.39v-11.01c0-.24-.14-.44-.31-.44h-2.94c-.17,0-.31.2-.31.44v11.01h-4.4c-.12,0-.24.11-.29.27-.05.16-.02.35.07.48l6.16,8.81c.06.08.14.13.22.13h0c.08,0,.16-.05.22-.13l6.18-8.81c.09-.13.11-.32.07-.48Z"/><circle class="cls-15" cx="197.62" cy="28.66" r="24.6"/><path class="cls-2" d="m196.77,18.01c0,.22.1.42.25.56s.35.22.57.22c.44-.01.78-.38.77-.81l-.12-4.49c-.01-.44-.38-.78-.81-.77s-.78.38-.77.81l.12,4.49Z"/><path class="cls-2" d="m199.84,19.05c.32.3.82.29,1.12-.03l3.28-3.46c.3-.32.29-.82-.03-1.12-.32-.3-.82-.29-1.12.03l-3.28,3.46c-.3.32-.29.82.03,1.12Z"/><path class="cls-2" d="m190.77,15.92l3.46,3.28c.32.3.82.29,1.12-.03s.29-.82-.03-1.12l-3.46-3.28c-.32-.3-.82-.29-1.12.03s-.29.82.03,1.12Z"/><path class="cls-2" d="m217.06,34.47l.87-3.46c.6-2.36-.99-5.02-3.36-5.62l-10-2.51c-1.18-.3-2.46-.11-3.51.52-1.05.63-1.82,1.66-2.12,2.84l-.05.19c-.11.43.15.86.58.96l1.54.39c.43.11.86-.15.97-.58l.05-.19c.09-.37.34-.7.67-.89s.73-.26,1.1-.16l10,2.51c.74.19,1.24,1.02,1.05,1.76l-.87,3.46c-.09.37-.34.7-.67.89s-.73.26-1.1.16l-10-2.51c-.74-.19-1.24-1.02-1.05-1.76l.05-.19c.11-.43-.15-.86-.58-.96l-1.54-.39c-.43-.11-.86.15-.97.58l-.05.19c-.3,1.18-.11,2.46.51,3.51s1.66,1.82,2.84,2.11l10,2.51c1.18.3,2.46.11,3.51-.52,1.05-.63,1.82-1.66,2.12-2.84Z"/><path class="cls-2" d="m177.53,34.47l-.87-3.46c-.6-2.36.99-5.02,3.36-5.62l10-2.51c1.18-.3,2.46-.11,3.51.52s1.82,1.66,2.12,2.84l.05.19c.11.43-.15.86-.58.96l-1.54.39c-.43.11-.86-.15-.97-.58l-.05-.19c-.09-.37-.34-.7-.67-.89s-.73-.26-1.1-.16l-10,2.51c-.74.19-1.24,1.02-1.05,1.76l.87,3.46c.09.37.34.7.67.89s.73.26,1.1.16l10-2.51c.74-.19,1.24-1.02,1.05-1.76l-.05-.19c-.11-.43.15-.86.58-.96l1.54-.39c.43-.11.86.15.97.58l.05.19c.3,1.18.11,2.46-.51,3.51-.62,1.05-1.66,1.82-2.84,2.11l-10,2.51c-1.18.3-2.46.11-3.51-.52-1.05-.63-1.82-1.66-2.12-2.84Z"/><circle class="cls-12" cx="197.62" cy="150.17" r="24.82"/><path class="cls-2" d="m215.06,149.08h-1.2c-.53-8.15-7.04-14.67-15.21-15.21v-1.2c0-.6-.49-1.09-1.09-1.09s-1.09.49-1.09,1.09v1.2c-8.15.53-14.67,7.04-15.21,15.21h-1.2c-.6,0-1.09.49-1.09,1.09s.49,1.09,1.09,1.09h1.2c.53,8.15,7.04,14.67,15.21,15.21v1.2c0,.6.49,1.09,1.09,1.09s1.09-.49,1.09-1.09v-1.2c8.15-.53,14.67-7.04,15.21-15.21h1.2c.6,0,1.09-.49,1.09-1.09s-.49-1.09-1.09-1.09h0Z"/><path class="cls-12" d="m198.66,164.28v-1.05c0-.6-.49-1.09-1.09-1.09s-1.09.49-1.09,1.09v1.05c-6.94-.53-12.49-6.09-13.02-13.02h1.05c.6,0,1.09-.49,1.09-1.09s-.49-1.09-1.09-1.09h-1.05c.53-6.94,6.09-12.49,13.02-13.02v1.05c0,.6.49,1.09,1.09,1.09s1.09-.49,1.09-1.09v-1.05c6.94.53,12.49,6.09,13.02,13.02h-1.05c-.6,0-1.09.49-1.09,1.09s.49,1.09,1.09,1.09h1.05c-.53,6.94-6.09,12.49-13.02,13.02h0Z"/><path class="cls-2" d="m202.94,148.82h-4.03v-4.03c0-.74-.6-1.34-1.34-1.34s-1.34.6-1.34,1.34v4.03h-4.03c-.74,0-1.34.6-1.34,1.34s.6,1.34,1.34,1.34h4.03v4.03c0,.74.6,1.34,1.34,1.34s1.34-.6,1.34-1.34v-4.03h4.03c.74,0,1.34-.6,1.34-1.34s-.6-1.34-1.34-1.34h0Z"/><path class="cls-18" d="m52.35,113.25c-13.21,0-23.95-10.75-23.95-23.95s10.75-23.95,23.95-23.95,23.95,10.75,23.95,23.95-10.75,23.95-23.95,23.95Z"/><path class="cls-2" d="m48.88,88.91l-11.03,10.59s0,0-.01.01c-1.37,1.37-1.6,3.38-.22,4.75,1.37,1.37,3.25,1.02,4.63-.35,0,0,.01-.01.02-.02l9.73-10.24,4.28-4.51,1.93-2.03c.1-.1.19-.2.28-.31,2.56.97,5.57.42,7.64-1.64,1.5-1.5,2.26-3.58,2.08-5.71-.02-.24-.18-.45-.41-.53-.23-.08-.48-.03-.65.14l-3.5,3.5-3.54-.89-1-3.65,3.5-3.5c.17-.17.23-.43.14-.65-.08-.23-.29-.39-.53-.41-2.12-.18-4.2.58-5.71,2.08-2.06,2.06-2.61,5.07-1.64,7.63-.11.09-.21.18-.31.28l-2.84,2.73"/><polygon class="cls-2" points="61.46 95.72 56.12 101.12 39.48 84.26 44.82 78.86 61.46 95.72"/><path class="cls-2" d="m63.61,106.63l2.93-2.97c1.13-1.15.52-2.38-.62-3.54l-2.81-2.85-5.34,5.4,3.28,3.32c.88.89,1.68,1.52,2.56.63h0Z"/><path class="cls-2" d="m36.52,75.2c-.54-.12-1.02.37-.89.92l2.39,6.79,5.34-5.4-6.84-2.31Z"/><line class="cls-10" x1="41.53" y1="81.1" x2="59.42" y2="99.1"/><circle class="cls-1" cx="124.38" cy="150.4" r="24.48"/><path class="cls-16" d="m112.38,166.15v-30.96c0-.3.25-.55.55-.55h18.18l5.27,5.21v26.3h-24Z"/><path class="cls-2" d="m136.38,139.85h-4.72c-.3,0-.55-.25-.55-.55v-4.66"/><path class="cls-2" d="m128.86,156.62c.09-.03.15-.09.15-.16v-2.44h9.48c.14,0,.25-.08.25-.17v-1.64c0-.1-.11-.17-.25-.17h-9.48v-2.45c0-.07-.06-.13-.15-.16-.09-.03-.2-.01-.27.04l-4.91,3.43s-.07.08-.07.12h0s.03.09.07.12l4.91,3.44c.07.05.18.06.27.04Z"/><path class="cls-2" d="m135.72,156.38c-.09.03-.15.09-.15.16v2.44h-9.48c-.14,0-.25.08-.25.17v1.64c0,.1.11.17.25.17h9.48v2.45c0,.07.06.13.15.16.09.03.2.01.27-.04l4.91-3.43s.07-.08.07-.12h0s-.03-.09-.07-.12l-4.91-3.44c-.07-.05-.18-.06-.27-.04Z"/><circle class="cls-1" cx="52.35" cy="28.66" r="24.6"/><path class="cls-16" d="m58.56,18.36h-18.59c-1.76,0-3.19,1.43-3.19,3.19v18.59c0,1.76,1.43,3.19,3.19,3.19h18.59c1.76,0,3.19-1.43,3.19-3.19v-18.59c0-1.76-1.43-3.19-3.19-3.19h0Z"/><path class="cls-2" d="m61.76,41.38c0,1.08-.88,1.95-1.95,1.95h-21.09c-1.08,0-1.95-.88-1.95-1.95v-3.04l5.49-4.67c.2-.17.49-.17.7,0l3.44,2.86c.33.28.82.25,1.12-.05l8.17-8.19c.15-.15.32-.16.41-.16.09,0,.26.04.39.2l5.27,6.48v6.58Z"/><path class="cls-2" d="m43.72,27.75c-1.74,0-3.15-1.41-3.15-3.15s1.41-3.15,3.15-3.15,3.15,1.41,3.15,3.15-1.41,3.15-3.15,3.15h0Z"/><rect class="cls-2" x="60.19" y="10.36" width="3.12" height="18.98" rx=".86" ry=".86" transform="translate(81.6 -41.9) rotate(90)"/><rect class="cls-2" x="60.19" y="10.36" width="3.12" height="18.98" rx=".86" ry=".86" transform="translate(123.5 39.7) rotate(180)"/><circle class="cls-5" cx="269.17" cy="150.24" r="24.6"/><path class="cls-4" d="m280.62,165.37c.2,0,.36-.06.36-.14v-11.22c0-.08-.16-.14-.36-.14h-5.07c-.2,0-.36.06-.36.14v11.22c0,.08.16.14.36.14h5.07Z"/><path class="cls-4" d="m271.92,165.37c.2,0,.36-.1.36-.22v-16.89c0-.12-.16-.22-.36-.22h-5.07c-.2,0-.36.1-.36.22v16.89c0,.12.16.22.36.22h5.07Z"/><path class="cls-4" d="m263.21,165.37c.2,0,.36-.13.36-.29v-22.44c0-.16-.16-.29-.36-.29h-5.07c-.2,0-.36.13-.36.29v22.44c0,.16.16.29.36.29h5.07Z"/><line class="cls-7" x1="257.27" y1="167.51" x2="281.5" y2="167.51"/><rect class="cls-2" x="276.17" y="131.3" width="3.12" height="18.98" rx=".86" ry=".86" transform="translate(418.52 -136.94) rotate(90)"/><rect class="cls-2" x="276.17" y="131.3" width="3.12" height="18.98" rx=".86" ry=".86" transform="translate(555.46 281.58) rotate(-180)"/><circle class="cls-8" cx="197.62" cy="210.84" r="24.24"/><path class="cls-2" d="m211.45,198.49h-3.4v-1.48c0-.27-.22-.49-.49-.49h-.12c-.27,0-.49.22-.49.49v1.48h-18.66v-1.48c0-.27-.22-.49-.49-.49h-.12c-.27,0-.49.22-.49.49v1.48h-3.4c-.82,0-1.48.66-1.48,1.48v23.72c0,.82.66,1.48,1.48,1.48h27.67c.82,0,1.48-.66,1.48-1.48v-23.72c0-.82-.66-1.48-1.48-1.48h0Zm-28.17,1.74c0-.42.22-.75.49-.75h3.4v1.32c0,.42.22.75.49.75h.12c.27,0,.49-.34.49-.75v-1.32h18.66v1.22c0,.42.22.75.49.75h.12c.27,0,.49-.34.49-.75v-1.22h3.4c.27,0,.49.34.49.75v3.77h-28.66v-3.77Z"/><rect class="cls-8" x="185.98" y="212.83" width="15.93" height="6" rx=".5" ry=".5" transform="translate(409.78 21.89) rotate(90)"/><rect class="cls-8" x="178.48" y="212.83" width="15.93" height="6" rx=".5" ry=".5" transform="translate(402.28 29.39) rotate(90)"/><rect class="cls-8" x="193.48" y="212.84" width="15.93" height="6" rx=".5" ry=".5" transform="translate(417.29 14.39) rotate(90)"/><rect class="cls-8" x="200.99" y="212.83" width="15.93" height="6" rx=".5" ry=".5" transform="translate(424.78 6.88) rotate(90)"/><rect class="cls-8" x="185.42" y="203.32" width="1.92" height="6" rx=".5" ry=".5" transform="translate(392.69 19.94) rotate(90)"/><rect class="cls-8" x="192.91" y="203.32" width="1.92" height="6" rx=".5" ry=".5" transform="translate(400.18 12.45) rotate(90)"/><rect class="cls-8" x="200.4" y="203.32" width="1.92" height="6" rx=".5" ry=".5" transform="translate(407.67 4.96) rotate(90)"/><rect class="cls-8" x="207.9" y="203.32" width="1.92" height="6" rx=".5" ry=".5" transform="translate(415.17 -2.54) rotate(90)"/><rect class="cls-2" x="184.69" y="208.78" width="3.47" height=".82" rx=".23" ry=".23"/><rect class="cls-2" x="192.2" y="210.75" width="3.47" height=".82" rx=".23" ry=".23"/><rect class="cls-2" x="199.66" y="210.75" width="3.47" height=".82" rx=".23" ry=".23"/><rect class="cls-2" x="192.2" y="213.64" width="3.47" height=".82" rx=".23" ry=".23"/><rect class="cls-2" x="207" y="213.58" width="3.47" height=".82" rx=".23" ry=".23"/><rect class="cls-2" x="199.66" y="219.37" width="3.47" height=".82" rx=".23" ry=".23"/><rect class="cls-2" x="184.69" y="218.56" width="3.47" height=".82" rx=".23" ry=".23"/><rect class="cls-2" x="184.69" y="221.34" width="3.47" height=".82" rx=".23" ry=".23"/><rect class="cls-2" x="207" y="221.34" width="3.47" height=".82" rx=".23" ry=".23"/><circle class="cls-17" cx="124.38" cy="28.66" r="24.6"/><path class="cls-2" d="m125.71,33.37l-3.89-3.84.05-.05c2.66-2.97,4.56-6.38,5.68-9.99h4.48v-3.07h-10.71v-3.06h-3.06v3.06h-10.71v3.05h17.1c-1.03,2.95-2.65,5.75-4.85,8.2-1.42-1.58-2.6-3.31-3.54-5.13h-3.06c1.12,2.49,2.65,4.85,4.56,6.98l-7.78,7.69,2.17,2.17,7.65-7.65,4.76,4.76,1.16-3.11Zm0,0"/><rect id="SVGID" class="cls-11" x="107.54" y="13.36" width="33.67" height="30.61"/><path class="cls-2" d="m134.33,25.6h-3.06l-6.89,18.37h3.06l1.72-4.59h7.27l1.72,4.59h3.06l-6.89-18.37Zm-4.02,10.71l2.49-6.63,2.49,6.63h-4.97Zm0,0"/><path class="cls-1" d="m269.17,235.81c-13.57,0-24.6-11.04-24.6-24.6s11.04-24.61,24.6-24.61,24.61,11.04,24.61,24.61-11.04,24.6-24.61,24.6Z"/><path class="cls-2" d="m265.6,210.81l-11.33,10.88s0,0-.01.01c-1.41,1.41-1.64,3.47-.23,4.88,1.41,1.41,3.34,1.05,4.75-.36,0,0,.01-.01.02-.02l9.99-10.52,4.4-4.63,1.98-2.09c.1-.1.2-.21.29-.32,2.63.99,5.73.44,7.84-1.68,1.54-1.55,2.32-3.68,2.13-5.86-.02-.25-.18-.46-.42-.54-.23-.08-.49-.03-.67.15l-3.59,3.59-3.64-.92-1.03-3.75,3.59-3.59c.18-.18.23-.44.15-.67-.08-.23-.3-.4-.55-.42-2.18-.19-4.32.59-5.86,2.14-2.12,2.12-2.68,5.21-1.68,7.84-.11.09-.22.19-.32.29l-2.92,2.81"/><polygon class="cls-2" points="278.53 217.8 273.04 223.36 255.95 206.04 261.43 200.49 278.53 217.8"/><path class="cls-2" d="m280.74,229.01l3.01-3.05c1.16-1.18.53-2.45-.63-3.63l-2.88-2.92-5.48,5.55,3.36,3.41c.9.91,1.72,1.56,2.63.65h0Z"/><path class="cls-2" d="m252.9,196.72c-.55-.12-1.05.38-.91.94l2.46,6.98,5.48-5.55-7.03-2.37Z"/><line class="cls-9" x1="258.05" y1="202.79" x2="276.42" y2="221.28"/><circle class="cls-12" cx="269.17" cy="28.66" r="24.6"/><path class="cls-2" d="m283.64,20.94c-.05-.17-.16-.27-.29-.27h-4.42v-11.08c0-.24-.14-.44-.31-.44h-2.96c-.17,0-.31.2-.31.44v11.08h-4.43c-.13,0-.24.11-.29.27-.05.17-.02.36.07.48l6.21,8.87c.06.08.14.13.22.13h0c.08,0,.16-.05.22-.13l6.23-8.87c.09-.13.12-.32.07-.48Z"/><path class="cls-2" d="m274.43,35.56h-.78c-.35-5.33-4.6-9.59-9.94-9.94v-.78c0-.39-.32-.71-.71-.71s-.71.32-.71.71v.78c-5.33.35-9.59,4.6-9.94,9.94h-.78c-.39,0-.71.32-.71.71s.32.71.71.71h.78c.35,5.33,4.6,9.59,9.94,9.94v.78c0,.39.32.71.71.71s.71-.32.71-.71v-.78c5.33-.35,9.59-4.6,9.94-9.94h.78c.39,0,.71-.32.71-.71s-.32-.71-.71-.71h0Z"/><path class="cls-12" d="m263.71,45.49v-.68c0-.39-.32-.71-.71-.71s-.71.32-.71.71v.68c-4.54-.35-8.17-3.98-8.51-8.51h.68c.39,0,.71-.32.71-.71s-.32-.71-.71-.71h-.68c.35-4.54,3.98-8.17,8.51-8.51v.68c0,.39.32.71.71.71s.71-.32.71-.71v-.68c4.54.35,8.17,3.98,8.51,8.51h-.68c-.39,0-.71.32-.71.71s.32.71.71.71h.68c-.35,4.54-3.98,8.17-8.51,8.51h0Z"/><path class="cls-2" d="m266.5,35.39h-2.63v-2.63c0-.48-.39-.88-.88-.88s-.88.39-.88.88v2.63h-2.63c-.48,0-.88.39-.88.88s.39.88.88.88h2.63v2.63c0,.48.39.88.88.88s.88-.39.88-.88v-2.63h2.63c.48,0,.88-.39.88-.88s-.39-.88-.88-.88h0Z"/><circle class="cls-8" cx="52.35" cy="149.92" r="24.6"/><path class="cls-2" d="m66.39,137.39h-3.45v-1.5c0-.28-.22-.5-.5-.5h-.13c-.28,0-.5.22-.5.5v1.5h-18.93v-1.5c0-.28-.22-.5-.5-.5h-.13c-.28,0-.5.22-.5.5v1.5h-3.45c-.83,0-1.5.67-1.5,1.5v24.07c0,.83.67,1.5,1.5,1.5h28.09c.83,0,1.5-.67,1.5-1.5v-24.07c0-.83-.67-1.5-1.5-1.5h0Zm-28.59,1.77c0-.42.22-.76.5-.76h3.45v1.34c0,.42.22.76.5.76h.13c.28,0,.5-.34.5-.76v-1.34h18.93v1.24c0,.42.22.76.5.76h.13c.28,0,.5-.34.5-.76v-1.24h3.45c.28,0,.5.34.5.76v3.82h-29.09v-3.82Z"/><rect class="cls-8" x="40.01" y="146.12" width="8.02" height="1.39" rx=".26" ry=".26"/><rect class="cls-8" x="46.57" y="149.87" width="14.27" height="1.39" rx=".26" ry=".26"/><rect class="cls-8" x="50.28" y="153.62" width="10.56" height="1.39" rx=".26" ry=".26"/><rect class="cls-8" x="56.11" y="157.37" width="7.91" height="1.39" rx=".26" ry=".26"/><circle class="cls-12" cx="124.38" cy="89.59" r="24.6"/><path class="cls-16" d="m136.17,85.24h-16.37c-1.55,0-2.81,1.26-2.81,2.81v16.37c0,1.55,1.26,2.81,2.81,2.81h16.37c1.55,0,2.81-1.26,2.81-2.81v-16.37c0-1.55-1.26-2.81-2.81-2.81h0Z"/><path class="cls-2" d="m138.99,105.51c0,.95-.77,1.72-1.72,1.72h-18.57c-.95,0-1.72-.77-1.72-1.72v-2.68l4.84-4.11c.18-.15.43-.15.61,0l3.03,2.52c.29.24.72.22.99-.05l7.2-7.21c.13-.13.28-.14.36-.14.08,0,.23.03.34.18l4.64,5.71v5.79Z"/><path class="cls-2" d="m117.13,95.8c.03.07.06.15.1.24s.07.19.09.29c.02.1.02.2,0,.28-.02.09-.08.15-.17.19-.07.03-.15.04-.24.04h-.88c-.21,0-.37-.03-.49-.1-.13-.08-.23-.22-.29-.42-.06-.2-.12-.38-.19-.54-.15-.35-.28-.71-.4-1.09-.12-.38-.26-.75-.4-1.11-.04-.12-.08-.24-.11-.34-.03-.11-.07-.21-.12-.3s-.11-.17-.19-.24c-.08-.07-.19-.12-.32-.16-.07-.03-.14-.04-.23-.03-.09,0-.18.01-.27.01h-3.81c-.12,0-.26,0-.4-.01s-.29,0-.42.01-.26.03-.37.06c-.11.03-.2.08-.25.16-.11.13-.19.29-.23.45-.05.17-.1.34-.17.51-.13.31-.26.63-.37.97s-.24.66-.37.97c-.03.08-.06.17-.09.27-.03.1-.07.2-.11.31-.04.11-.08.21-.13.29-.05.09-.1.15-.15.19-.11.08-.25.13-.43.13-.18,0-.37.01-.57.01-.11,0-.21,0-.31-.01-.1,0-.19-.04-.25-.09-.07-.04-.1-.1-.11-.18,0-.08,0-.16.02-.25.02-.09.05-.17.08-.26.03-.09.06-.15.09-.19.19-.43.36-.86.5-1.28.15-.42.31-.85.48-1.28.12-.3.23-.59.34-.88.11-.29.22-.58.34-.88.4-.97.79-1.95,1.15-2.94.36-.99.75-1.97,1.15-2.96.15-.35.29-.71.41-1.07.13-.36.27-.72.41-1.07.07-.15.13-.31.19-.49.06-.18.15-.31.27-.39.05-.05.14-.09.26-.12.03-.01.06-.02.09-.01s.06,0,.09-.01c.24,0,.52,0,.85-.01.32,0,.56.04.71.15.11.08.19.21.25.39.06.18.12.35.19.49.13.31.26.62.36.93.11.31.23.62.36.93.11.27.21.54.31.83s.21.56.33.83c.4.98.79,1.97,1.16,2.98.37,1,.76,1.99,1.18,2.98.05.12.1.24.13.34.03.11.07.22.11.34.15.35.29.71.43,1.07.14.36.29.72.43,1.07Zm-4.32-4.9c.12-.04.2-.11.23-.2.03-.09.04-.2.02-.31s-.05-.23-.1-.34-.09-.21-.13-.29c-.03-.05-.04-.1-.04-.14s-.01-.09-.04-.14c-.04-.11-.08-.22-.11-.33-.03-.11-.08-.23-.13-.35-.2-.48-.38-.98-.53-1.48-.15-.5-.33-1-.53-1.48-.07-.15-.12-.3-.17-.44-.05-.15-.1-.29-.17-.42-.03-.07-.06-.13-.09-.19s-.1-.09-.21-.09c-.03.03-.05.05-.08.06-.03.01-.05.03-.08.06-.05.07-.09.14-.12.21-.03.07-.05.15-.08.23-.07.15-.12.3-.16.44-.04.15-.09.3-.16.44-.23.52-.43,1.06-.6,1.59-.17.54-.36,1.06-.57,1.57-.03.07-.05.13-.07.2-.02.07-.04.13-.07.2-.04.11-.08.22-.12.32-.04.11-.07.22-.1.32-.03.07-.04.14-.03.22,0,.08.02.15.05.2.07.11.21.16.42.17.21,0,.42.01.6.01h2.16c.15,0,.33,0,.54.01.21,0,.38-.01.48-.05Z"/><path class="cls-2" d="m127.88,96.1c.04.22.02.39-.06.53-.08.14-.19.25-.32.31-.07.03-.14.04-.21.04s-.15.01-.23.04c-.3.07-.59.05-.88-.05-.29-.1-.49-.23-.6-.37-.07-.09-.13-.21-.18-.33-.05-.13-.12-.23-.2-.31-.03-.03-.06-.05-.09-.08-.03-.03-.08-.03-.13-.02-.15.04-.29.11-.41.22-.13.11-.25.2-.37.28-.17.11-.36.21-.56.29-.2.09-.42.16-.65.23-.13.04-.28.07-.43.08-.15.01-.31.03-.45.06-.07.01-.13.02-.17.02h-.15c-.15.03-.29.03-.42,0h-.18c-.07-.01-.13-.02-.2-.02s-.13-.01-.18-.04c-.05-.01-.1-.02-.13-.01-.03,0-.07,0-.11-.01-.11-.03-.22-.05-.32-.07-.11-.02-.21-.05-.3-.09-.4-.17-.73-.37-.98-.59-.25-.22-.45-.53-.62-.94-.12-.3-.18-.65-.18-1.07v-.42c.01-.07.02-.14.03-.21,0-.07.02-.15.03-.23.05-.15.11-.3.16-.44.05-.15.12-.28.2-.4.24-.39.57-.68.99-.87s.87-.36,1.37-.5c.19-.05.38-.09.58-.12.2-.03.4-.06.61-.1.09-.03.18-.04.27-.04s.18-.01.29-.04c.09-.03.19-.04.28-.05.09,0,.2-.02.3-.05.34-.08.65-.15.95-.21.3-.06.53-.21.71-.45.08-.11.15-.25.2-.41.05-.17.05-.35,0-.55-.08-.32-.2-.58-.35-.77-.16-.19-.37-.34-.66-.44-.16-.07-.35-.11-.57-.14-.22-.03-.45-.04-.7-.04s-.48.01-.71.04c-.23.03-.42.07-.58.12-.23.08-.45.2-.67.34-.11.08-.21.19-.29.31-.09.13-.17.27-.23.41-.04.11-.08.22-.11.34s-.1.22-.19.28c-.05.04-.14.07-.27.09-.13.02-.26.03-.39.03s-.27-.01-.39-.03c-.13-.02-.22-.05-.27-.09s-.09-.11-.12-.2c-.03-.09-.03-.2,0-.3.04-.17.08-.34.13-.49.05-.15.1-.31.17-.45.26-.47.58-.84.97-1.1s.87-.47,1.45-.64c.13-.03.27-.05.41-.06.14-.01.29-.03.43-.06.05-.01.14-.02.26-.01.12,0,.19,0,.22-.03.94-.01,1.76.09,2.46.32.7.23,1.19.67,1.47,1.31.12.27.19.58.21.94.02.36.03.73.03,1.12v4.46c0,.19,0,.37.02.54.01.17.05.32.12.42.07.09.15.16.26.2.12.05.23.09.34.11.11.02.19.08.24.19.03.04.04.08.04.12s0,.09.02.16Zm-2.88-2.24c.08-.19.12-.41.13-.66,0-.25.01-.51.01-.78,0-.15,0-.28-.02-.4-.01-.12-.07-.22-.16-.28-.04-.03-.13-.04-.28-.04-.03.03-.07.04-.14.04s-.13.01-.18.04c-.11.03-.23.05-.36.08-.14.03-.27.05-.4.08-.04,0-.08,0-.13.01-.05,0-.1.01-.15.01-.2.05-.42.08-.66.09-.24,0-.45.04-.66.09-.11.03-.21.05-.29.07-.09.02-.19.04-.29.07-.22.07-.42.15-.6.25-.19.1-.35.23-.48.37-.13.15-.24.33-.3.53-.07.21-.09.46-.08.76,0,.13.02.26.07.37.05.11.1.22.17.31.11.15.25.27.42.37.17.1.36.19.56.25.07.01.13.02.2.02s.13,0,.2.02c.09.03.21.04.35.05.14,0,.26,0,.35-.03.08-.03.16-.04.24-.03.08,0,.16,0,.24-.03.11-.03.21-.05.31-.06s.2-.04.29-.08c.39-.16.72-.36,1-.59.28-.23.49-.54.64-.93Z"/><rect class="cls-2" x="132.22" y="71.29" width="3.12" height="18.98" rx=".86" ry=".86" transform="translate(214.56 -53) rotate(90)"/><rect class="cls-2" x="132.22" y="71.29" width="3.12" height="18.98" rx=".86" ry=".86" transform="translate(267.56 161.56) rotate(180)"/><circle class="cls-5" cx="124.38" cy="211.2" r="24.6"/><path class="cls-14" d="m111.31,227.9c-.1,0-.19-.09-.19-.19v-22.3c0-.11.08-.19.19-.19h26.15c.1,0,.19.09.19.19v22.3c0,.11-.08.19-.19.19h-26.15Z"/><rect class="cls-5" x="121.31" y="222.01" width="6.1" height="4.07" rx=".17" ry=".17"/><rect class="cls-5" x="112.99" y="222.01" width="6.1" height="4.07" rx=".17" ry=".17"/><rect class="cls-2" x="121.31" y="215.72" width="6.1" height="4.07" rx=".17" ry=".17"/><rect class="cls-2" x="112.99" y="215.72" width="6.1" height="4.07" rx=".17" ry=".17"/><rect class="cls-5" x="121.27" y="209.5" width="6.1" height="4.07" rx=".17" ry=".17"/><rect class="cls-5" x="112.95" y="209.5" width="6.1" height="4.07" rx=".17" ry=".17"/><rect class="cls-5" x="129.65" y="222.01" width="6.1" height="4.07" rx=".17" ry=".17"/><path class="cls-2" d="m129.82,215.64h5.72c.09,0,.17.08.17.17v3.73c0,.09-.08.17-.17.17h-5.72c-.09,0-.17-.08-.17-.17v-3.73c0-.09.08-.17.17-.17Z"/><rect class="cls-5" x="129.61" y="209.41" width="6.1" height="4.07" rx=".17" ry=".17"/><path class="cls-2" d="m127.06,202.58c.04.14.14.24.25.24h3.83v9.61c0,.21.12.38.27.38h2.57c.15,0,.27-.17.27-.38v-9.61h3.85c.11,0,.21-.09.25-.24.04-.14.02-.31-.06-.42l-5.39-7.7c-.05-.07-.12-.11-.19-.11h0c-.07,0-.14.04-.19.11l-5.4,7.7c-.08.11-.1.28-.06.42Z"/><path class="cls-6" d="m214.89,72.03c-9.55-9.54-25.01-9.54-34.55,0-9.19,9.19-9.53,23.86-1.03,33.45l.24.21c-.92,2-2.52,4.45-5.03,5.69-.84.4-.64,1.64.27,1.79,2.76.43,6.71-.05,10.38-2.84l.05.05c9.37,5.51,21.61,4.24,29.65-3.8,9.56-9.54,9.56-25,.02-34.55h0Z"/><path class="cls-2" d="m198.41,68.36c2.93.02,5.28,2.41,5.26,5.39-.02,2.95-2.41,5.35-5.28,5.32-2.98-.02-5.37-2.46-5.35-5.41.02-2.95,2.42-5.32,5.37-5.3h0Z"/><path class="cls-2" d="m205.98,104.26c-.11.45-.41.93-.73,1.27-1.94,1.96-4.25,3.13-7.03,3.17-1.29.02-2.61-.02-3.88-.22-2.13-.3-4.83-2.93-4.44-5.76.26-1.92.56-3.84.88-5.76.56-3.32,1.16-6.66,1.75-9.98.04-.22.04-.43.04-.65,0-1.4-.43-1.88-1.81-2.07-.58-.09-1.21-.13-1.75-.32-.69-.24-.99-.78-.93-1.34.07-.58.43-.95,1.19-1.1.39-.09.8-.09,1.21-.09h10.09c1.25,0,1.98.58,2.03,1.83.02,1.04-.15,2.07-.34,3.1-.67,3.79-1.38,7.59-2.07,11.4-.24,1.25-.5,2.52-.63,3.77-.07.6.02,1.25.17,1.83.19.8.8,1.23,1.6,1.14.67-.09,1.34-.32,1.98-.56.52-.19.97-.56,1.51-.75.71-.28,1.36.26,1.16,1.06h0Z"/><path class="cls-16" d="m52.35,235.81c-13.57,0-24.6-11.04-24.6-24.6s11.04-24.61,24.6-24.61,24.61,11.04,24.61,24.61-11.04,24.6-24.61,24.6Z"/><path class="cls-3" d="m38.82,196.05c-.72,0-1.31.59-1.31,1.31v22.49c0,.72.39,1.74.86,2.29l2.85,3.25c.47.54,1.44.98,2.16.98h22.49c.72,0,1.3-.58,1.3-1.3v-27.71c0-.72-.58-1.31-1.3-1.31h-27.05Z"/><rect class="cls-16" x="48.32" y="211.28" width="9.43" height="17.35" rx="2.59" ry="2.59" transform="translate(272.99 166.93) rotate(90)"/><rect class="cls-2" x="47.01" y="216.82" width="2.65" height="6.27"/><circle class="cls-16" cx="53.03" cy="206.58" r="4.04"/></svg>