<svg width="48" height="48" viewBox="0 0 48 48" fill="none" xmlns="http://www.w3.org/2000/svg">
<path d="M24.052 4C14.2659 3.99874 5.92365 11.096 4.35683 20.7558C2.78999 30.4158 8.46121 39.786 17.746 42.878C18.746 43.058 19.104 42.444 19.104 41.916C19.104 41.442 19.088 40.186 19.082 38.516C13.532 39.716 12.36 35.84 12.36 35.84C11.9947 34.634 11.2092 33.5986 10.146 32.922C8.34603 31.684 10.284 31.712 10.284 31.712C11.5654 31.8876 12.6931 32.647 13.338 33.768C13.8839 34.7606 14.8035 35.494 15.8926 35.8052C16.9817 36.1166 18.1501 35.98 19.138 35.426C19.2309 34.414 19.6811 33.4682 20.408 32.758C15.98 32.256 11.324 30.544 11.324 22.898C11.2995 20.9204 12.0338 19.0086 13.376 17.556C12.7687 15.8346 12.8403 13.9465 13.576 12.276C13.576 12.276 15.25 11.738 19.06 14.318C22.3278 13.422 25.7764 13.422 29.044 14.318C32.856 11.736 34.528 12.276 34.528 12.276C35.2672 13.9457 35.3388 15.8351 34.728 17.556C36.0752 19.0085 36.809 20.9252 36.776 22.906C36.776 30.572 32.116 32.256 27.672 32.75C28.6306 33.7302 29.1224 35.0746 29.022 36.442C29.022 39.11 28.998 41.262 28.998 41.916C28.998 42.45 29.354 43.07 30.372 42.874C39.653 39.7768 45.3182 30.406 43.748 20.7486C42.178 11.0913 33.8362 3.99776 24.052 4Z" fill="white"/>
</svg>
