<svg width="66" height="91" viewBox="0 0 66 91" fill="none" xmlns="http://www.w3.org/2000/svg">
<path d="M0 0C6.10931 0.334969 11.6447 1.60041 16.6062 3.79632C21.5677 5.99223 25.8072 9.02556 29.3247 12.8963C32.8792 16.7671 35.6192 21.438 37.5445 26.9092C39.4699 32.3804 40.4326 38.5773 40.4326 45.5C40.4326 52.4227 39.4699 58.6196 37.5445 64.0908C35.6192 69.562 32.8792 74.2329 29.3247 78.1037C25.8072 81.9744 21.5677 85.0078 16.6062 87.2037C11.6447 89.3996 6.10931 90.665 0 91V0ZM10.3303 78.9411C12.7 78.1967 15.0326 77.0057 17.3282 75.3681C19.6609 73.7305 21.7343 71.5718 23.5486 68.892C25.3999 66.2123 26.881 62.9556 27.9918 59.1221C29.1396 55.2513 29.7135 50.7106 29.7135 45.5C29.7135 40.2894 29.1396 35.7673 27.9918 31.9337C26.881 28.063 25.3999 24.7877 23.5486 22.108C21.7343 19.4282 19.6609 17.2695 17.3282 15.6319C15.0326 13.9943 12.7 12.8033 10.3303 12.0589V78.9411Z" fill="white"/>
<path d="M53.2815 27.8583L63.2031 36.3442L63.6118 67.4405H53.2815V27.8583ZM50.5601 83.519C50.5601 82.5141 50.7452 81.565 51.1155 80.6718C51.4858 79.7785 52.0041 78.9969 52.6706 78.327C53.3371 77.6198 54.1331 77.0616 55.0588 76.6521C56.0215 76.2427 57.0952 76.038 58.28 76.038C59.4279 76.038 60.4831 76.2427 61.4458 76.6521C62.4085 77.0616 63.223 77.6198 63.8895 78.327C64.556 78.9969 65.0743 79.7785 65.4446 80.6718C65.8149 81.565 66 82.5141 66 83.519C66 84.5239 65.8149 85.473 65.4446 86.3663C65.0743 87.2595 64.556 88.0411 63.8895 88.711C63.223 89.381 62.4085 89.9207 61.4458 90.3301C60.4831 90.7395 59.4279 90.9442 58.28 90.9442C57.0952 90.9442 56.0215 90.7395 55.0588 90.3301C54.1331 89.9207 53.3371 89.381 52.6706 88.711C52.0041 88.0411 51.4858 87.2595 51.1155 86.3663C50.7452 85.473 50.5601 84.5239 50.5601 83.519Z" fill="white"/>
</svg>
