<?xml version="1.0" encoding="UTF-8"?><svg id="Lager_1" xmlns="http://www.w3.org/2000/svg" viewBox="0 0 23.15 32.22"><defs><style>.cls-1{fill:#fff;}.cls-2{fill:#256b74;}</style></defs><rect class="cls-2" x="0" y="0" width="23.15" height="23.15" rx="11.57" ry="11.57"/><path class="cls-1" d="m14.12,11.65c0,.94.34,1.18.8,1.18.72,0,1-.68,1-1.9,0-3.18-2.17-4.34-4.37-4.34-3.13,0-4.32,2.37-4.32,4.46,0,3.01,2.03,4.45,4.39,4.45,1.22,0,2.1-.21,3.11-.72l.55,1.07c-.52.41-1.87.94-3.73.94-2.93,0-5.82-1.96-5.82-5.75s2.77-5.76,5.82-5.76c3.23,0,5.86,2.04,5.86,5.63,0,1.92-.82,3.2-2.48,3.2-.79,0-1.44-.28-1.8-.94-.3.63-.86.94-1.83.94-1.55,0-2.37-1.08-2.37-2.68v-.73c0-1.76.94-2.66,2.37-2.66.58,0,1,.14,1.32.38v-.31h1.49v3.52Zm-1.49-.17v-.7c0-1-.34-1.42-1.11-1.42s-1.07.49-1.07,1.42v.58c0,.96.3,1.48,1.07,1.48.83,0,1.11-.48,1.11-1.35Z"/><path class="cls-1" d="m11.81,19.68c-.1-.24-.45-.24-.55,0l-5.2,12.13c-.1.24.13.49.38.4l4.35-1.64c.11-.04.19-.15.19-.26l.55-9.35.55,9.35c0,.12.08.22.19.26l4.35,1.64c.25.09.49-.16.38-.4l-5.2-12.12Z"/></svg>