<?xml version="1.0" encoding="UTF-8"?><svg id="Lager_1" xmlns="http://www.w3.org/2000/svg" viewBox="0 0 320 240"><defs><style>.cls-1{fill:#fff;}.cls-2{fill:#d1dcbe;opacity:.54;}</style></defs><rect class="cls-1" width="320" height="240"/><circle class="cls-2" cx="89.04" cy="115.8" r="83.27"/><path d="m108.66,6.97c.55,0,.99-.44.99-.99s-.44-.99-.99-.99-.99.44-.99.99.44.99.99.99Z"/><path d="m112.65,6.97c.54,0,.99-.44.99-.99s-.44-.99-.99-.99-.99.44-.99.99.44.99.99.99Z"/><path d="m116.63,6.97c.54,0,.99-.44.99-.99s-.44-.99-.99-.99-.99.44-.99.99.44.99.99.99Z"/><path d="m120.62,6.97c.54,0,.99-.44.99-.99s-.44-.99-.99-.99-.99.44-.99.99.44.99.99.99Z"/><path d="m108.66,10.96c.55,0,.99-.44.99-.99s-.44-.99-.99-.99-.99.44-.99.99.44.99.99.99Z"/><path d="m112.65,10.96c.54,0,.99-.44.99-.99s-.44-.99-.99-.99-.99.44-.99.99.44.99.99.99Z"/><path d="m116.63,10.96c.54,0,.99-.44.99-.99s-.44-.99-.99-.99-.99.44-.99.99.44.99.99.99Z"/><path d="m120.62,10.96c.54,0,.99-.44.99-.99s-.44-.99-.99-.99-.99.44-.99.99.44.99.99.99Z"/><path d="m112.65,14.95c.54,0,.99-.44.99-.99s-.44-.99-.99-.99-.99.44-.99.99.44.99.99.99Z"/><path d="m116.63,14.95c.54,0,.99-.44.99-.99s-.44-.99-.99-.99-.99.44-.99.99.44.99.99.99Z"/><path d="m120.62,14.95c.54,0,.99-.44.99-.99s-.44-.99-.99-.99-.99.44-.99.99.44.99.99.99Z"/><path d="m124.61,14.95c.55,0,.99-.44.99-.99s-.44-.99-.99-.99-.99.44-.99.99.44.99.99.99Z"/><path d="m92.7,18.94c.55,0,.99-.44.99-.99s-.44-.99-.99-.99-.99.44-.99.99.44.99.99.99Z"/><path d="m96.69,18.94c.55,0,.99-.44.99-.99s-.44-.99-.99-.99-.99.44-.99.99.44.99.99.99Z"/><path d="m100.68,18.94c.55,0,.99-.44.99-.99s-.44-.99-.99-.99-.99.44-.99.99.44.99.99.99Z"/><path d="m104.67,18.94c.55,0,.99-.44.99-.99s-.44-.99-.99-.99-.99.44-.99.99.44.99.99.99Z"/><path d="m108.66,18.94c.55,0,.99-.44.99-.99s-.44-.99-.99-.99-.99.44-.99.99.44.99.99.99Z"/><path d="m112.65,18.94c.54,0,.99-.44.99-.99s-.44-.99-.99-.99-.99.44-.99.99.44.99.99.99Z"/><path d="m116.63,18.94c.54,0,.99-.44.99-.99s-.44-.99-.99-.99-.99.44-.99.99.44.99.99.99Z"/><path d="m120.62,18.94c.54,0,.99-.44.99-.99s-.44-.99-.99-.99-.99.44-.99.99.44.99.99.99Z"/><path d="m124.61,18.94c.55,0,.99-.44.99-.99s-.44-.99-.99-.99-.99.44-.99.99.44.99.99.99Z"/><path d="m128.6,18.94c.55,0,.99-.44.99-.99s-.44-.99-.99-.99-.99.44-.99.99.44.99.99.99Z"/><path d="m132.59,18.94c.55,0,.99-.44.99-.99s-.44-.99-.99-.99-.99.44-.99.99.44.99.99.99Z"/><path d="m136.57,18.94c.55,0,.99-.44.99-.99s-.44-.99-.99-.99-.99.44-.99.99.44.99.99.99Z"/><path d="m92.7,22.93c.55,0,.99-.44.99-.99s-.44-.99-.99-.99-.99.44-.99.99.44.99.99.99Z"/><path d="m96.69,22.93c.55,0,.99-.44.99-.99s-.44-.99-.99-.99-.99.44-.99.99.44.99.99.99Z"/><path d="m100.68,22.93c.55,0,.99-.44.99-.99s-.44-.99-.99-.99-.99.44-.99.99.44.99.99.99Z"/><path d="m104.67,22.93c.55,0,.99-.44.99-.99s-.44-.99-.99-.99-.99.44-.99.99.44.99.99.99Z"/><path d="m108.66,22.93c.55,0,.99-.44.99-.99s-.44-.99-.99-.99-.99.44-.99.99.44.99.99.99Z"/><path d="m112.65,22.93c.54,0,.99-.44.99-.99s-.44-.99-.99-.99-.99.44-.99.99.44.99.99.99Z"/><path d="m116.63,22.93c.54,0,.99-.44.99-.99s-.44-.99-.99-.99-.99.44-.99.99.44.99.99.99Z"/><path d="m120.62,22.93c.54,0,.99-.44.99-.99s-.44-.99-.99-.99-.99.44-.99.99.44.99.99.99Z"/><path d="m124.61,22.93c.55,0,.99-.44.99-.99s-.44-.99-.99-.99-.99.44-.99.99.44.99.99.99Z"/><path d="m128.6,22.93c.55,0,.99-.44.99-.99s-.44-.99-.99-.99-.99.44-.99.99.44.99.99.99Z"/><path d="m132.59,22.93c.55,0,.99-.44.99-.99s-.44-.99-.99-.99-.99.44-.99.99.44.99.99.99Z"/><path d="m136.57,22.93c.55,0,.99-.44.99-.99s-.44-.99-.99-.99-.99.44-.99.99.44.99.99.99Z"/><path d="m140.56,22.93c.55,0,.99-.44.99-.99s-.44-.99-.99-.99-.99.44-.99.99.44.99.99.99Z"/><path d="m84.73,26.92c.55,0,.99-.44.99-.99s-.44-.99-.99-.99-.99.44-.99.99.44.99.99.99Z"/><path d="m88.72,26.92c.55,0,.99-.44.99-.99s-.44-.99-.99-.99-.99.44-.99.99.44.99.99.99Z"/><path d="m92.7,26.92c.55,0,.99-.44.99-.99s-.44-.99-.99-.99-.99.44-.99.99.44.99.99.99Z"/><path d="m96.69,26.92c.55,0,.99-.44.99-.99s-.44-.99-.99-.99-.99.44-.99.99.44.99.99.99Z"/><path d="m100.68,26.92c.55,0,.99-.44.99-.99s-.44-.99-.99-.99-.99.44-.99.99.44.99.99.99Z"/><path d="m104.67,26.92c.55,0,.99-.44.99-.99s-.44-.99-.99-.99-.99.44-.99.99.44.99.99.99Z"/><path d="m108.66,26.92c.55,0,.99-.44.99-.99s-.44-.99-.99-.99-.99.44-.99.99.44.99.99.99Z"/><path d="m112.65,26.92c.54,0,.99-.44.99-.99s-.44-.99-.99-.99-.99.44-.99.99.44.99.99.99Z"/><path d="m116.63,26.92c.54,0,.99-.44.99-.99s-.44-.99-.99-.99-.99.44-.99.99.44.99.99.99Z"/><path d="m120.62,26.92c.54,0,.99-.44.99-.99s-.44-.99-.99-.99-.99.44-.99.99.44.99.99.99Z"/><path d="m124.61,26.92c.55,0,.99-.44.99-.99s-.44-.99-.99-.99-.99.44-.99.99.44.99.99.99Z"/><path d="m128.6,26.92c.55,0,.99-.44.99-.99s-.44-.99-.99-.99-.99.44-.99.99.44.99.99.99Z"/><path d="m132.59,26.92c.55,0,.99-.44.99-.99s-.44-.99-.99-.99-.99.44-.99.99.44.99.99.99Z"/><path d="m136.57,26.92c.55,0,.99-.44.99-.99s-.44-.99-.99-.99-.99.44-.99.99.44.99.99.99Z"/><path d="m140.56,26.92c.55,0,.99-.44.99-.99s-.44-.99-.99-.99-.99.44-.99.99.44.99.99.99Z"/><path d="m144.55,26.92c.55,0,.99-.44.99-.99s-.44-.99-.99-.99-.99.44-.99.99.44.99.99.99Z"/><path d="m80.74,30.9c.55,0,.99-.44.99-.99s-.44-.99-.99-.99-.99.44-.99.99.44.99.99.99Z"/><path d="m84.73,30.9c.55,0,.99-.44.99-.99s-.44-.99-.99-.99-.99.44-.99.99.44.99.99.99Z"/><path d="m88.72,30.9c.55,0,.99-.44.99-.99s-.44-.99-.99-.99-.99.44-.99.99.44.99.99.99Z"/><path d="m92.7,30.9c.55,0,.99-.44.99-.99s-.44-.99-.99-.99-.99.44-.99.99.44.99.99.99Z"/><path d="m96.69,30.9c.55,0,.99-.44.99-.99s-.44-.99-.99-.99-.99.44-.99.99.44.99.99.99Z"/><path d="m100.68,30.9c.55,0,.99-.44.99-.99s-.44-.99-.99-.99-.99.44-.99.99.44.99.99.99Z"/><path d="m104.67,30.9c.55,0,.99-.44.99-.99s-.44-.99-.99-.99-.99.44-.99.99.44.99.99.99Z"/><path d="m108.66,30.9c.55,0,.99-.44.99-.99s-.44-.99-.99-.99-.99.44-.99.99.44.99.99.99Z"/><path d="m112.65,30.9c.54,0,.99-.44.99-.99s-.44-.99-.99-.99-.99.44-.99.99.44.99.99.99Z"/><path d="m116.63,30.9c.54,0,.99-.44.99-.99s-.44-.99-.99-.99-.99.44-.99.99.44.99.99.99Z"/><path d="m120.62,30.9c.54,0,.99-.44.99-.99s-.44-.99-.99-.99-.99.44-.99.99.44.99.99.99Z"/><path d="m124.61,30.9c.55,0,.99-.44.99-.99s-.44-.99-.99-.99-.99.44-.99.99.44.99.99.99Z"/><path d="m128.6,30.9c.55,0,.99-.44.99-.99s-.44-.99-.99-.99-.99.44-.99.99.44.99.99.99Z"/><path d="m132.59,30.9c.55,0,.99-.44.99-.99s-.44-.99-.99-.99-.99.44-.99.99.44.99.99.99Z"/><path d="m136.57,30.9c.55,0,.99-.44.99-.99s-.44-.99-.99-.99-.99.44-.99.99.44.99.99.99Z"/><path d="m140.56,30.9c.55,0,.99-.44.99-.99s-.44-.99-.99-.99-.99.44-.99.99.44.99.99.99Z"/><path d="m144.55,30.9c.55,0,.99-.44.99-.99s-.44-.99-.99-.99-.99.44-.99.99.44.99.99.99Z"/><path d="m80.74,34.89c.55,0,.99-.44.99-.99s-.44-.99-.99-.99-.99.44-.99.99.44.99.99.99Z"/><path d="m84.73,34.89c.55,0,.99-.44.99-.99s-.44-.99-.99-.99-.99.44-.99.99.44.99.99.99Z"/><path d="m88.72,34.89c.55,0,.99-.44.99-.99s-.44-.99-.99-.99-.99.44-.99.99.44.99.99.99Z"/><path d="m92.7,34.89c.55,0,.99-.44.99-.99s-.44-.99-.99-.99-.99.44-.99.99.44.99.99.99Z"/><path d="m96.69,34.89c.55,0,.99-.44.99-.99s-.44-.99-.99-.99-.99.44-.99.99.44.99.99.99Z"/><path d="m100.68,34.89c.55,0,.99-.44.99-.99s-.44-.99-.99-.99-.99.44-.99.99.44.99.99.99Z"/><path d="m104.67,34.89c.55,0,.99-.44.99-.99s-.44-.99-.99-.99-.99.44-.99.99.44.99.99.99Z"/><path d="m108.66,34.89c.55,0,.99-.44.99-.99s-.44-.99-.99-.99-.99.44-.99.99.44.99.99.99Z"/><path d="m112.65,34.89c.54,0,.99-.44.99-.99s-.44-.99-.99-.99-.99.44-.99.99.44.99.99.99Z"/><path d="m116.63,34.89c.54,0,.99-.44.99-.99s-.44-.99-.99-.99-.99.44-.99.99.44.99.99.99Z"/><path d="m120.62,34.89c.54,0,.99-.44.99-.99s-.44-.99-.99-.99-.99.44-.99.99.44.99.99.99Z"/><path d="m124.61,34.89c.55,0,.99-.44.99-.99s-.44-.99-.99-.99-.99.44-.99.99.44.99.99.99Z"/><path d="m128.6,34.89c.55,0,.99-.44.99-.99s-.44-.99-.99-.99-.99.44-.99.99.44.99.99.99Z"/><path d="m132.59,34.89c.55,0,.99-.44.99-.99s-.44-.99-.99-.99-.99.44-.99.99.44.99.99.99Z"/><path d="m136.57,34.89c.55,0,.99-.44.99-.99s-.44-.99-.99-.99-.99.44-.99.99.44.99.99.99Z"/><path d="m140.56,34.89c.55,0,.99-.44.99-.99s-.44-.99-.99-.99-.99.44-.99.99.44.99.99.99Z"/><path d="m144.55,34.89c.55,0,.99-.44.99-.99s-.44-.99-.99-.99-.99.44-.99.99.44.99.99.99Z"/><path d="m76.75,38.88c.55,0,.99-.44.99-.99s-.44-.99-.99-.99-.99.44-.99.99.44.99.99.99Z"/><path d="m80.74,38.88c.55,0,.99-.44.99-.99s-.44-.99-.99-.99-.99.44-.99.99.44.99.99.99Z"/><path d="m84.73,38.88c.55,0,.99-.44.99-.99s-.44-.99-.99-.99-.99.44-.99.99.44.99.99.99Z"/><path d="m88.72,38.88c.55,0,.99-.44.99-.99s-.44-.99-.99-.99-.99.44-.99.99.44.99.99.99Z"/><path d="m92.7,38.88c.55,0,.99-.44.99-.99s-.44-.99-.99-.99-.99.44-.99.99.44.99.99.99Z"/><path d="m96.69,38.88c.55,0,.99-.44.99-.99s-.44-.99-.99-.99-.99.44-.99.99.44.99.99.99Z"/><path d="m100.68,38.88c.55,0,.99-.44.99-.99s-.44-.99-.99-.99-.99.44-.99.99.44.99.99.99Z"/><path d="m104.67,38.88c.55,0,.99-.44.99-.99s-.44-.99-.99-.99-.99.44-.99.99.44.99.99.99Z"/><path d="m108.66,38.88c.55,0,.99-.44.99-.99s-.44-.99-.99-.99-.99.44-.99.99.44.99.99.99Z"/><path d="m112.65,38.88c.54,0,.99-.44.99-.99s-.44-.99-.99-.99-.99.44-.99.99.44.99.99.99Z"/><path d="m116.63,38.88c.54,0,.99-.44.99-.99s-.44-.99-.99-.99-.99.44-.99.99.44.99.99.99Z"/><path d="m120.62,38.88c.54,0,.99-.44.99-.99s-.44-.99-.99-.99-.99.44-.99.99.44.99.99.99Z"/><path d="m124.61,38.88c.55,0,.99-.44.99-.99s-.44-.99-.99-.99-.99.44-.99.99.44.99.99.99Z"/><path d="m128.6,38.88c.55,0,.99-.44.99-.99s-.44-.99-.99-.99-.99.44-.99.99.44.99.99.99Z"/><path d="m132.59,38.88c.55,0,.99-.44.99-.99s-.44-.99-.99-.99-.99.44-.99.99.44.99.99.99Z"/><path d="m136.57,38.88c.55,0,.99-.44.99-.99s-.44-.99-.99-.99-.99.44-.99.99.44.99.99.99Z"/><path d="m140.56,38.88c.55,0,.99-.44.99-.99s-.44-.99-.99-.99-.99.44-.99.99.44.99.99.99Z"/><path d="m144.55,38.88c.55,0,.99-.44.99-.99s-.44-.99-.99-.99-.99.44-.99.99.44.99.99.99Z"/><path d="m148.54,38.88c.55,0,.99-.44.99-.99s-.44-.99-.99-.99-.99.44-.99.99.44.99.99.99Z"/><path d="m80.74,42.87c.55,0,.99-.44.99-.99s-.44-.99-.99-.99-.99.44-.99.99.44.99.99.99Z"/><path d="m84.73,42.87c.55,0,.99-.44.99-.99s-.44-.99-.99-.99-.99.44-.99.99.44.99.99.99Z"/><path d="m88.72,42.87c.55,0,.99-.44.99-.99s-.44-.99-.99-.99-.99.44-.99.99.44.99.99.99Z"/><circle cx="92.7" cy="41.88" r=".99"/><path d="m96.69,42.87c.55,0,.99-.44.99-.99s-.44-.99-.99-.99-.99.44-.99.99.44.99.99.99Z"/><path d="m100.68,42.87c.55,0,.99-.44.99-.99s-.44-.99-.99-.99-.99.44-.99.99.44.99.99.99Z"/><path d="m104.67,42.87c.55,0,.99-.44.99-.99s-.44-.99-.99-.99-.99.44-.99.99.44.99.99.99Z"/><path d="m108.66,42.87c.55,0,.99-.44.99-.99s-.44-.99-.99-.99-.99.44-.99.99.44.99.99.99Z"/><path d="m112.65,42.87c.54,0,.99-.44.99-.99s-.44-.99-.99-.99-.99.44-.99.99.44.99.99.99Z"/><path d="m116.63,42.87c.54,0,.99-.44.99-.99s-.44-.99-.99-.99-.99.44-.99.99.44.99.99.99Z"/><path d="m120.62,42.87c.54,0,.99-.44.99-.99s-.44-.99-.99-.99-.99.44-.99.99.44.99.99.99Z"/><path d="m124.61,42.87c.55,0,.99-.44.99-.99s-.44-.99-.99-.99-.99.44-.99.99.44.99.99.99Z"/><path d="m128.6,42.87c.55,0,.99-.44.99-.99s-.44-.99-.99-.99-.99.44-.99.99.44.99.99.99Z"/><path d="m132.59,42.87c.55,0,.99-.44.99-.99s-.44-.99-.99-.99-.99.44-.99.99.44.99.99.99Z"/><path d="m136.57,42.87c.55,0,.99-.44.99-.99s-.44-.99-.99-.99-.99.44-.99.99.44.99.99.99Z"/><path d="m140.56,42.87c.55,0,.99-.44.99-.99s-.44-.99-.99-.99-.99.44-.99.99.44.99.99.99Z"/><path d="m144.55,42.87c.55,0,.99-.44.99-.99s-.44-.99-.99-.99-.99.44-.99.99.44.99.99.99Z"/><circle cx="148.54" cy="41.88" r=".99" transform="translate(106.29 190.32) rotate(-89.86)"/><path d="m80.74,46.86c.55,0,.99-.44.99-.99s-.44-.99-.99-.99-.99.44-.99.99.44.99.99.99Z"/><path d="m84.73,46.86c.55,0,.99-.44.99-.99s-.44-.99-.99-.99-.99.44-.99.99.44.99.99.99Z"/><path d="m88.72,46.86c.55,0,.99-.44.99-.99s-.44-.99-.99-.99-.99.44-.99.99.44.99.99.99Z"/><circle cx="92.7" cy="45.87" r=".99"/><path d="m96.69,46.86c.55,0,.99-.44.99-.99s-.44-.99-.99-.99-.99.44-.99.99.44.99.99.99Z"/><path d="m100.68,46.86c.55,0,.99-.44.99-.99s-.44-.99-.99-.99-.99.44-.99.99.44.99.99.99Z"/><path d="m104.67,46.86c.55,0,.99-.44.99-.99s-.44-.99-.99-.99-.99.44-.99.99.44.99.99.99Z"/><path d="m108.66,46.86c.55,0,.99-.44.99-.99s-.44-.99-.99-.99-.99.44-.99.99.44.99.99.99Z"/><path d="m112.65,46.86c.54,0,.99-.44.99-.99s-.44-.99-.99-.99-.99.44-.99.99.44.99.99.99Z"/><path d="m116.63,46.86c.54,0,.99-.44.99-.99s-.44-.99-.99-.99-.99.44-.99.99.44.99.99.99Z"/><path d="m120.62,46.86c.54,0,.99-.44.99-.99s-.44-.99-.99-.99-.99.44-.99.99.44.99.99.99Z"/><path d="m124.61,46.86c.55,0,.99-.44.99-.99s-.44-.99-.99-.99-.99.44-.99.99.44.99.99.99Z"/><path d="m128.6,46.86c.55,0,.99-.44.99-.99s-.44-.99-.99-.99-.99.44-.99.99.44.99.99.99Z"/><path d="m132.59,46.86c.55,0,.99-.44.99-.99s-.44-.99-.99-.99-.99.44-.99.99.44.99.99.99Z"/><path d="m136.57,46.86c.55,0,.99-.44.99-.99s-.44-.99-.99-.99-.99.44-.99.99.44.99.99.99Z"/><path d="m140.56,46.86c.55,0,.99-.44.99-.99s-.44-.99-.99-.99-.99.44-.99.99.44.99.99.99Z"/><path d="m144.55,46.86c.55,0,.99-.44.99-.99s-.44-.99-.99-.99-.99.44-.99.99.44.99.99.99Z"/><circle cx="148.54" cy="45.87" r=".99" transform="translate(102.3 194.29) rotate(-89.86)"/><path d="m76.75,50.84c.55,0,.99-.44.99-.99s-.44-.99-.99-.99-.99.44-.99.99.44.99.99.99Z"/><path d="m80.74,50.84c.55,0,.99-.44.99-.99s-.44-.99-.99-.99-.99.44-.99.99.44.99.99.99Z"/><path d="m84.73,50.84c.55,0,.99-.44.99-.99s-.44-.99-.99-.99-.99.44-.99.99.44.99.99.99Z"/><path d="m88.72,50.84c.55,0,.99-.44.99-.99s-.44-.99-.99-.99-.99.44-.99.99.44.99.99.99Z"/><path d="m92.7,50.84c.55,0,.99-.44.99-.99s-.44-.99-.99-.99-.99.44-.99.99.44.99.99.99Z"/><path d="m96.69,50.84c.55,0,.99-.44.99-.99s-.44-.99-.99-.99-.99.44-.99.99.44.99.99.99Z"/><path d="m100.68,50.84c.55,0,.99-.44.99-.99s-.44-.99-.99-.99-.99.44-.99.99.44.99.99.99Z"/><path d="m104.67,50.84c.55,0,.99-.44.99-.99s-.44-.99-.99-.99-.99.44-.99.99.44.99.99.99Z"/><path d="m108.66,50.84c.55,0,.99-.44.99-.99s-.44-.99-.99-.99-.99.44-.99.99.44.99.99.99Z"/><path d="m112.65,50.84c.54,0,.99-.44.99-.99s-.44-.99-.99-.99-.99.44-.99.99.44.99.99.99Z"/><path d="m116.63,50.84c.54,0,.99-.44.99-.99s-.44-.99-.99-.99-.99.44-.99.99.44.99.99.99Z"/><path d="m120.62,50.84c.54,0,.99-.44.99-.99s-.44-.99-.99-.99-.99.44-.99.99.44.99.99.99Z"/><path d="m124.61,50.84c.55,0,.99-.44.99-.99s-.44-.99-.99-.99-.99.44-.99.99.44.99.99.99Z"/><path d="m128.6,50.84c.55,0,.99-.44.99-.99s-.44-.99-.99-.99-.99.44-.99.99.44.99.99.99Z"/><path d="m132.59,50.84c.55,0,.99-.44.99-.99s-.44-.99-.99-.99-.99.44-.99.99.44.99.99.99Z"/><path d="m136.57,50.84c.55,0,.99-.44.99-.99s-.44-.99-.99-.99-.99.44-.99.99.44.99.99.99Z"/><path d="m140.56,50.84c.55,0,.99-.44.99-.99s-.44-.99-.99-.99-.99.44-.99.99.44.99.99.99Z"/><path d="m144.55,50.84c.55,0,.99-.44.99-.99s-.44-.99-.99-.99-.99.44-.99.99.44.99.99.99Z"/><path d="m148.54,50.84c.55,0,.99-.44.99-.99s-.44-.99-.99-.99-.99.44-.99.99.44.99.99.99Z"/><path d="m72.76,54.83c.55,0,.99-.44.99-.99s-.44-.99-.99-.99-.99.44-.99.99.44.99.99.99Z"/><path d="m76.75,54.83c.55,0,.99-.44.99-.99s-.44-.99-.99-.99-.99.44-.99.99.44.99.99.99Z"/><path d="m80.74,54.83c.55,0,.99-.44.99-.99s-.44-.99-.99-.99-.99.44-.99.99.44.99.99.99Z"/><path d="m84.73,54.83c.55,0,.99-.44.99-.99s-.44-.99-.99-.99-.99.44-.99.99.44.99.99.99Z"/><path d="m88.72,54.83c.55,0,.99-.44.99-.99s-.44-.99-.99-.99-.99.44-.99.99.44.99.99.99Z"/><path d="m92.7,54.83c.55,0,.99-.44.99-.99s-.44-.99-.99-.99-.99.44-.99.99.44.99.99.99Z"/><path d="m96.69,54.83c.55,0,.99-.44.99-.99s-.44-.99-.99-.99-.99.44-.99.99.44.99.99.99Z"/><path d="m100.68,54.83c.55,0,.99-.44.99-.99s-.44-.99-.99-.99-.99.44-.99.99.44.99.99.99Z"/><path d="m104.67,54.83c.55,0,.99-.44.99-.99s-.44-.99-.99-.99-.99.44-.99.99.44.99.99.99Z"/><path d="m108.66,54.83c.55,0,.99-.44.99-.99s-.44-.99-.99-.99-.99.44-.99.99.44.99.99.99Z"/><path d="m112.65,54.83c.54,0,.99-.44.99-.99s-.44-.99-.99-.99-.99.44-.99.99.44.99.99.99Z"/><path d="m116.63,54.83c.54,0,.99-.44.99-.99s-.44-.99-.99-.99-.99.44-.99.99.44.99.99.99Z"/><path d="m120.62,54.83c.54,0,.99-.44.99-.99s-.44-.99-.99-.99-.99.44-.99.99.44.99.99.99Z"/><path d="m124.61,54.83c.55,0,.99-.44.99-.99s-.44-.99-.99-.99-.99.44-.99.99.44.99.99.99Z"/><path d="m128.6,54.83c.55,0,.99-.44.99-.99s-.44-.99-.99-.99-.99.44-.99.99.44.99.99.99Z"/><path d="m132.59,54.83c.55,0,.99-.44.99-.99s-.44-.99-.99-.99-.99.44-.99.99.44.99.99.99Z"/><path d="m136.57,54.83c.55,0,.99-.44.99-.99s-.44-.99-.99-.99-.99.44-.99.99.44.99.99.99Z"/><path d="m140.56,54.83c.55,0,.99-.44.99-.99s-.44-.99-.99-.99-.99.44-.99.99.44.99.99.99Z"/><path d="m144.55,54.83c.55,0,.99-.44.99-.99s-.44-.99-.99-.99-.99.44-.99.99.44.99.99.99Z"/><path d="m148.54,54.83c.55,0,.99-.44.99-.99s-.44-.99-.99-.99-.99.44-.99.99.44.99.99.99Z"/><path d="m72.76,58.82c.55,0,.99-.44.99-.99s-.44-.99-.99-.99-.99.44-.99.99.44.99.99.99Z"/><path d="m76.75,58.82c.55,0,.99-.44.99-.99s-.44-.99-.99-.99-.99.44-.99.99.44.99.99.99Z"/><path d="m80.74,58.82c.55,0,.99-.44.99-.99s-.44-.99-.99-.99-.99.44-.99.99.44.99.99.99Z"/><path d="m84.73,58.82c.55,0,.99-.44.99-.99s-.44-.99-.99-.99-.99.44-.99.99.44.99.99.99Z"/><path d="m88.72,58.82c.55,0,.99-.44.99-.99s-.44-.99-.99-.99-.99.44-.99.99.44.99.99.99Z"/><path d="m92.7,58.82c.55,0,.99-.44.99-.99s-.44-.99-.99-.99-.99.44-.99.99.44.99.99.99Z"/><path d="m96.69,58.82c.55,0,.99-.44.99-.99s-.44-.99-.99-.99-.99.44-.99.99.44.99.99.99Z"/><path d="m100.68,58.82c.55,0,.99-.44.99-.99s-.44-.99-.99-.99-.99.44-.99.99.44.99.99.99Z"/><path d="m104.67,58.82c.55,0,.99-.44.99-.99s-.44-.99-.99-.99-.99.44-.99.99.44.99.99.99Z"/><path d="m108.66,58.82c.55,0,.99-.44.99-.99s-.44-.99-.99-.99-.99.44-.99.99.44.99.99.99Z"/><path d="m112.65,58.82c.54,0,.99-.44.99-.99s-.44-.99-.99-.99-.99.44-.99.99.44.99.99.99Z"/><path d="m116.63,58.82c.54,0,.99-.44.99-.99s-.44-.99-.99-.99-.99.44-.99.99.44.99.99.99Z"/><path d="m120.62,58.82c.54,0,.99-.44.99-.99s-.44-.99-.99-.99-.99.44-.99.99.44.99.99.99Z"/><path d="m124.61,58.82c.55,0,.99-.44.99-.99s-.44-.99-.99-.99-.99.44-.99.99.44.99.99.99Z"/><path d="m128.6,58.82c.55,0,.99-.44.99-.99s-.44-.99-.99-.99-.99.44-.99.99.44.99.99.99Z"/><path d="m132.59,58.82c.55,0,.99-.44.99-.99s-.44-.99-.99-.99-.99.44-.99.99.44.99.99.99Z"/><path d="m136.57,58.82c.55,0,.99-.44.99-.99s-.44-.99-.99-.99-.99.44-.99.99.44.99.99.99Z"/><path d="m140.56,58.82c.55,0,.99-.44.99-.99s-.44-.99-.99-.99-.99.44-.99.99.44.99.99.99Z"/><path d="m144.55,58.82c.55,0,.99-.44.99-.99s-.44-.99-.99-.99-.99.44-.99.99.44.99.99.99Z"/><path d="m148.54,58.82c.55,0,.99-.44.99-.99s-.44-.99-.99-.99-.99.44-.99.99.44.99.99.99Z"/><path d="m64.79,62.81c.55,0,.99-.44.99-.99s-.44-.99-.99-.99-.99.44-.99.99.44.99.99.99Z"/><path d="m68.77,62.81c.55,0,.99-.44.99-.99s-.44-.99-.99-.99-.99.44-.99.99.44.99.99.99Z"/><path d="m72.76,62.81c.55,0,.99-.44.99-.99s-.44-.99-.99-.99-.99.44-.99.99.44.99.99.99Z"/><path d="m76.75,62.81c.55,0,.99-.44.99-.99s-.44-.99-.99-.99-.99.44-.99.99.44.99.99.99Z"/><path d="m80.74,62.81c.55,0,.99-.44.99-.99s-.44-.99-.99-.99-.99.44-.99.99.44.99.99.99Z"/><path d="m84.73,62.81c.55,0,.99-.44.99-.99s-.44-.99-.99-.99-.99.44-.99.99.44.99.99.99Z"/><path d="m88.72,62.81c.55,0,.99-.44.99-.99s-.44-.99-.99-.99-.99.44-.99.99.44.99.99.99Z"/><path d="m92.7,62.81c.55,0,.99-.44.99-.99s-.44-.99-.99-.99-.99.44-.99.99.44.99.99.99Z"/><path d="m96.69,62.81c.55,0,.99-.44.99-.99s-.44-.99-.99-.99-.99.44-.99.99.44.99.99.99Z"/><path d="m100.68,62.81c.55,0,.99-.44.99-.99s-.44-.99-.99-.99-.99.44-.99.99.44.99.99.99Z"/><path d="m104.67,62.81c.55,0,.99-.44.99-.99s-.44-.99-.99-.99-.99.44-.99.99.44.99.99.99Z"/><path d="m108.66,62.81c.55,0,.99-.44.99-.99s-.44-.99-.99-.99-.99.44-.99.99.44.99.99.99Z"/><path d="m112.65,62.81c.54,0,.99-.44.99-.99s-.44-.99-.99-.99-.99.44-.99.99.44.99.99.99Z"/><path d="m116.63,62.81c.54,0,.99-.44.99-.99s-.44-.99-.99-.99-.99.44-.99.99.44.99.99.99Z"/><path d="m120.62,62.81c.54,0,.99-.44.99-.99s-.44-.99-.99-.99-.99.44-.99.99.44.99.99.99Z"/><path d="m124.61,62.81c.55,0,.99-.44.99-.99s-.44-.99-.99-.99-.99.44-.99.99.44.99.99.99Z"/><path d="m128.6,62.81c.55,0,.99-.44.99-.99s-.44-.99-.99-.99-.99.44-.99.99.44.99.99.99Z"/><path d="m132.59,62.81c.55,0,.99-.44.99-.99s-.44-.99-.99-.99-.99.44-.99.99.44.99.99.99Z"/><path d="m136.57,62.81c.55,0,.99-.44.99-.99s-.44-.99-.99-.99-.99.44-.99.99.44.99.99.99Z"/><path d="m140.56,62.81c.55,0,.99-.44.99-.99s-.44-.99-.99-.99-.99.44-.99.99.44.99.99.99Z"/><path d="m144.55,62.81c.55,0,.99-.44.99-.99s-.44-.99-.99-.99-.99.44-.99.99.44.99.99.99Z"/><path d="m148.54,62.81c.55,0,.99-.44.99-.99s-.44-.99-.99-.99-.99.44-.99.99.44.99.99.99Z"/><path d="m152.53,62.81c.55,0,.99-.44.99-.99s-.44-.99-.99-.99-.99.44-.99.99.44.99.99.99Z"/><path d="m64.79,66.8c.55,0,.99-.44.99-.99s-.44-.99-.99-.99-.99.44-.99.99.44.99.99.99Z"/><path d="m68.77,66.8c.55,0,.99-.44.99-.99s-.44-.99-.99-.99-.99.44-.99.99.44.99.99.99Z"/><path d="m72.76,66.8c.55,0,.99-.44.99-.99s-.44-.99-.99-.99-.99.44-.99.99.44.99.99.99Z"/><path d="m76.75,66.8c.55,0,.99-.44.99-.99s-.44-.99-.99-.99-.99.44-.99.99.44.99.99.99Z"/><path d="m80.74,66.8c.55,0,.99-.44.99-.99s-.44-.99-.99-.99-.99.44-.99.99.44.99.99.99Z"/><path d="m84.73,66.8c.55,0,.99-.44.99-.99s-.44-.99-.99-.99-.99.44-.99.99.44.99.99.99Z"/><path d="m88.72,66.8c.55,0,.99-.44.99-.99s-.44-.99-.99-.99-.99.44-.99.99.44.99.99.99Z"/><path d="m92.7,66.8c.55,0,.99-.44.99-.99s-.44-.99-.99-.99-.99.44-.99.99.44.99.99.99Z"/><path d="m96.69,66.8c.55,0,.99-.44.99-.99s-.44-.99-.99-.99-.99.44-.99.99.44.99.99.99Z"/><path d="m100.68,66.8c.55,0,.99-.44.99-.99s-.44-.99-.99-.99-.99.44-.99.99.44.99.99.99Z"/><path d="m104.67,66.8c.55,0,.99-.44.99-.99s-.44-.99-.99-.99-.99.44-.99.99.44.99.99.99Z"/><path d="m108.66,66.8c.55,0,.99-.44.99-.99s-.44-.99-.99-.99-.99.44-.99.99.44.99.99.99Z"/><path d="m112.65,66.8c.54,0,.99-.44.99-.99s-.44-.99-.99-.99-.99.44-.99.99.44.99.99.99Z"/><path d="m116.63,66.8c.54,0,.99-.44.99-.99s-.44-.99-.99-.99-.99.44-.99.99.44.99.99.99Z"/><path d="m120.62,66.8c.54,0,.99-.44.99-.99s-.44-.99-.99-.99-.99.44-.99.99.44.99.99.99Z"/><path d="m124.61,66.8c.55,0,.99-.44.99-.99s-.44-.99-.99-.99-.99.44-.99.99.44.99.99.99Z"/><path d="m128.6,66.8c.55,0,.99-.44.99-.99s-.44-.99-.99-.99-.99.44-.99.99.44.99.99.99Z"/><path d="m132.59,66.8c.55,0,.99-.44.99-.99s-.44-.99-.99-.99-.99.44-.99.99.44.99.99.99Z"/><path d="m136.57,66.8c.55,0,.99-.44.99-.99s-.44-.99-.99-.99-.99.44-.99.99.44.99.99.99Z"/><path d="m140.56,66.8c.55,0,.99-.44.99-.99s-.44-.99-.99-.99-.99.44-.99.99.44.99.99.99Z"/><path d="m144.55,66.8c.55,0,.99-.44.99-.99s-.44-.99-.99-.99-.99.44-.99.99.44.99.99.99Z"/><path d="m148.54,66.8c.55,0,.99-.44.99-.99s-.44-.99-.99-.99-.99.44-.99.99.44.99.99.99Z"/><path d="m152.53,66.8c.55,0,.99-.44.99-.99s-.44-.99-.99-.99-.99.44-.99.99.44.99.99.99Z"/><path d="m64.79,70.79c.55,0,.99-.44.99-.99s-.44-.99-.99-.99-.99.44-.99.99.44.99.99.99Z"/><path d="m68.77,70.79c.55,0,.99-.44.99-.99s-.44-.99-.99-.99-.99.44-.99.99.44.99.99.99Z"/><path d="m72.76,70.79c.55,0,.99-.44.99-.99s-.44-.99-.99-.99-.99.44-.99.99.44.99.99.99Z"/><path d="m76.75,70.79c.55,0,.99-.44.99-.99s-.44-.99-.99-.99-.99.44-.99.99.44.99.99.99Z"/><path d="m80.74,70.79c.55,0,.99-.44.99-.99s-.44-.99-.99-.99-.99.44-.99.99.44.99.99.99Z"/><path d="m84.73,70.79c.55,0,.99-.44.99-.99s-.44-.99-.99-.99-.99.44-.99.99.44.99.99.99Z"/><path d="m88.72,70.79c.55,0,.99-.44.99-.99s-.44-.99-.99-.99-.99.44-.99.99.44.99.99.99Z"/><circle cx="92.7" cy="69.8" r=".99"/><path d="m96.69,70.79c.55,0,.99-.44.99-.99s-.44-.99-.99-.99-.99.44-.99.99.44.99.99.99Z"/><path d="m100.68,70.79c.55,0,.99-.44.99-.99s-.44-.99-.99-.99-.99.44-.99.99.44.99.99.99Z"/><path d="m104.67,70.79c.55,0,.99-.44.99-.99s-.44-.99-.99-.99-.99.44-.99.99.44.99.99.99Z"/><path d="m108.66,70.79c.55,0,.99-.44.99-.99s-.44-.99-.99-.99-.99.44-.99.99.44.99.99.99Z"/><path d="m112.65,70.79c.54,0,.99-.44.99-.99s-.44-.99-.99-.99-.99.44-.99.99.44.99.99.99Z"/><path d="m116.63,70.79c.54,0,.99-.44.99-.99s-.44-.99-.99-.99-.99.44-.99.99.44.99.99.99Z"/><path d="m120.62,70.79c.54,0,.99-.44.99-.99s-.44-.99-.99-.99-.99.44-.99.99.44.99.99.99Z"/><path d="m124.61,70.79c.55,0,.99-.44.99-.99s-.44-.99-.99-.99-.99.44-.99.99.44.99.99.99Z"/><path d="m128.6,70.79c.55,0,.99-.44.99-.99s-.44-.99-.99-.99-.99.44-.99.99.44.99.99.99Z"/><path d="m132.59,70.79c.55,0,.99-.44.99-.99s-.44-.99-.99-.99-.99.44-.99.99.44.99.99.99Z"/><path d="m136.57,70.79c.55,0,.99-.44.99-.99s-.44-.99-.99-.99-.99.44-.99.99.44.99.99.99Z"/><path d="m140.56,70.79c.55,0,.99-.44.99-.99s-.44-.99-.99-.99-.99.44-.99.99.44.99.99.99Z"/><path d="m144.55,70.79c.55,0,.99-.44.99-.99s-.44-.99-.99-.99-.99.44-.99.99.44.99.99.99Z"/><circle cx="148.54" cy="69.8" r=".99" transform="translate(78.37 218.16) rotate(-89.86)"/><path d="m152.53,70.79c.55,0,.99-.44.99-.99s-.44-.99-.99-.99-.99.44-.99.99.44.99.99.99Z"/><path d="m64.79,74.77c.55,0,.99-.44.99-.99s-.44-.99-.99-.99-.99.44-.99.99.44.99.99.99Z"/><path d="m68.77,74.77c.55,0,.99-.44.99-.99s-.44-.99-.99-.99-.99.44-.99.99.44.99.99.99Z"/><path d="m72.76,74.77c.55,0,.99-.44.99-.99s-.44-.99-.99-.99-.99.44-.99.99.44.99.99.99Z"/><path d="m76.75,74.77c.55,0,.99-.44.99-.99s-.44-.99-.99-.99-.99.44-.99.99.44.99.99.99Z"/><path d="m80.74,74.77c.55,0,.99-.44.99-.99s-.44-.99-.99-.99-.99.44-.99.99.44.99.99.99Z"/><path d="m84.73,74.77c.55,0,.99-.44.99-.99s-.44-.99-.99-.99-.99.44-.99.99.44.99.99.99Z"/><path d="m88.72,74.77c.55,0,.99-.44.99-.99s-.44-.99-.99-.99-.99.44-.99.99.44.99.99.99Z"/><path d="m92.7,74.77c.55,0,.99-.44.99-.99s-.44-.99-.99-.99-.99.44-.99.99.44.99.99.99Z"/><path d="m96.69,74.77c.55,0,.99-.44.99-.99s-.44-.99-.99-.99-.99.44-.99.99.44.99.99.99Z"/><path d="m100.68,74.77c.55,0,.99-.44.99-.99s-.44-.99-.99-.99-.99.44-.99.99.44.99.99.99Z"/><path d="m104.67,74.77c.55,0,.99-.44.99-.99s-.44-.99-.99-.99-.99.44-.99.99.44.99.99.99Z"/><path d="m108.66,74.77c.55,0,.99-.44.99-.99s-.44-.99-.99-.99-.99.44-.99.99.44.99.99.99Z"/><path d="m112.65,74.77c.54,0,.99-.44.99-.99s-.44-.99-.99-.99-.99.44-.99.99.44.99.99.99Z"/><path d="m116.63,74.77c.54,0,.99-.44.99-.99s-.44-.99-.99-.99-.99.44-.99.99.44.99.99.99Z"/><path d="m120.62,74.77c.54,0,.99-.44.99-.99s-.44-.99-.99-.99-.99.44-.99.99.44.99.99.99Z"/><path d="m124.61,74.77c.55,0,.99-.44.99-.99s-.44-.99-.99-.99-.99.44-.99.99.44.99.99.99Z"/><path d="m128.6,74.77c.55,0,.99-.44.99-.99s-.44-.99-.99-.99-.99.44-.99.99.44.99.99.99Z"/><path d="m132.59,74.77c.55,0,.99-.44.99-.99s-.44-.99-.99-.99-.99.44-.99.99.44.99.99.99Z"/><path d="m64.79,78.76c.55,0,.99-.44.99-.99s-.44-.99-.99-.99-.99.44-.99.99.44.99.99.99Z"/><path d="m68.77,78.76c.55,0,.99-.44.99-.99s-.44-.99-.99-.99-.99.44-.99.99.44.99.99.99Z"/><path d="m72.76,78.76c.55,0,.99-.44.99-.99s-.44-.99-.99-.99-.99.44-.99.99.44.99.99.99Z"/><path d="m76.75,78.76c.55,0,.99-.44.99-.99s-.44-.99-.99-.99-.99.44-.99.99.44.99.99.99Z"/><path d="m80.74,78.76c.55,0,.99-.44.99-.99s-.44-.99-.99-.99-.99.44-.99.99.44.99.99.99Z"/><path d="m84.73,78.76c.55,0,.99-.44.99-.99s-.44-.99-.99-.99-.99.44-.99.99.44.99.99.99Z"/><path d="m88.72,78.76c.55,0,.99-.44.99-.99s-.44-.99-.99-.99-.99.44-.99.99.44.99.99.99Z"/><circle cx="92.7" cy="77.78" r=".99"/><path d="m96.69,78.76c.55,0,.99-.44.99-.99s-.44-.99-.99-.99-.99.44-.99.99.44.99.99.99Z"/><path d="m100.68,78.76c.55,0,.99-.44.99-.99s-.44-.99-.99-.99-.99.44-.99.99.44.99.99.99Z"/><path d="m104.67,78.76c.55,0,.99-.44.99-.99s-.44-.99-.99-.99-.99.44-.99.99.44.99.99.99Z"/><path d="m108.66,78.76c.55,0,.99-.44.99-.99s-.44-.99-.99-.99-.99.44-.99.99.44.99.99.99Z"/><path d="m112.65,78.76c.54,0,.99-.44.99-.99s-.44-.99-.99-.99-.99.44-.99.99.44.99.99.99Z"/><path d="m116.63,78.76c.54,0,.99-.44.99-.99s-.44-.99-.99-.99-.99.44-.99.99.44.99.99.99Z"/><path d="m120.62,78.76c.54,0,.99-.44.99-.99s-.44-.99-.99-.99-.99.44-.99.99.44.99.99.99Z"/><path d="m124.61,78.76c.55,0,.99-.44.99-.99s-.44-.99-.99-.99-.99.44-.99.99.44.99.99.99Z"/><path d="m128.6,78.76c.55,0,.99-.44.99-.99s-.44-.99-.99-.99-.99.44-.99.99.44.99.99.99Z"/><path d="m132.59,78.76c.55,0,.99-.44.99-.99s-.44-.99-.99-.99-.99.44-.99.99.44.99.99.99Z"/><path d="m64.79,82.75c.55,0,.99-.44.99-.99s-.44-.99-.99-.99-.99.44-.99.99.44.99.99.99Z"/><path d="m68.77,82.75c.55,0,.99-.44.99-.99s-.44-.99-.99-.99-.99.44-.99.99.44.99.99.99Z"/><path d="m72.76,82.75c.55,0,.99-.44.99-.99s-.44-.99-.99-.99-.99.44-.99.99.44.99.99.99Z"/><path d="m76.75,82.75c.55,0,.99-.44.99-.99s-.44-.99-.99-.99-.99.44-.99.99.44.99.99.99Z"/><path d="m80.74,82.75c.55,0,.99-.44.99-.99s-.44-.99-.99-.99-.99.44-.99.99.44.99.99.99Z"/><path d="m84.73,82.75c.55,0,.99-.44.99-.99s-.44-.99-.99-.99-.99.44-.99.99.44.99.99.99Z"/><path d="m88.72,82.75c.55,0,.99-.44.99-.99s-.44-.99-.99-.99-.99.44-.99.99.44.99.99.99Z"/><path d="m92.7,82.75c.55,0,.99-.44.99-.99s-.44-.99-.99-.99-.99.44-.99.99.44.99.99.99Z"/><path d="m96.69,82.75c.55,0,.99-.44.99-.99s-.44-.99-.99-.99-.99.44-.99.99.44.99.99.99Z"/><path d="m100.68,82.75c.55,0,.99-.44.99-.99s-.44-.99-.99-.99-.99.44-.99.99.44.99.99.99Z"/><path d="m104.67,82.75c.55,0,.99-.44.99-.99s-.44-.99-.99-.99-.99.44-.99.99.44.99.99.99Z"/><path d="m108.66,82.75c.55,0,.99-.44.99-.99s-.44-.99-.99-.99-.99.44-.99.99.44.99.99.99Z"/><path d="m112.65,82.75c.54,0,.99-.44.99-.99s-.44-.99-.99-.99-.99.44-.99.99.44.99.99.99Z"/><path d="m116.63,82.75c.54,0,.99-.44.99-.99s-.44-.99-.99-.99-.99.44-.99.99.44.99.99.99Z"/><path d="m120.62,82.75c.54,0,.99-.44.99-.99s-.44-.99-.99-.99-.99.44-.99.99.44.99.99.99Z"/><path d="m124.61,82.75c.55,0,.99-.44.99-.99s-.44-.99-.99-.99-.99.44-.99.99.44.99.99.99Z"/><path d="m128.6,82.75c.55,0,.99-.44.99-.99s-.44-.99-.99-.99-.99.44-.99.99.44.99.99.99Z"/><path d="m60.8,86.74c.55,0,.99-.44.99-.99s-.44-.99-.99-.99-.99.44-.99.99.44.99.99.99Z"/><path d="m64.79,86.74c.55,0,.99-.44.99-.99s-.44-.99-.99-.99-.99.44-.99.99.44.99.99.99Z"/><path d="m68.77,86.74c.55,0,.99-.44.99-.99s-.44-.99-.99-.99-.99.44-.99.99.44.99.99.99Z"/><path d="m72.76,86.74c.55,0,.99-.44.99-.99s-.44-.99-.99-.99-.99.44-.99.99.44.99.99.99Z"/><path d="m76.75,86.74c.55,0,.99-.44.99-.99s-.44-.99-.99-.99-.99.44-.99.99.44.99.99.99Z"/><path d="m80.74,86.74c.55,0,.99-.44.99-.99s-.44-.99-.99-.99-.99.44-.99.99.44.99.99.99Z"/><path d="m84.73,86.74c.55,0,.99-.44.99-.99s-.44-.99-.99-.99-.99.44-.99.99.44.99.99.99Z"/><path d="m88.72,86.74c.55,0,.99-.44.99-.99s-.44-.99-.99-.99-.99.44-.99.99.44.99.99.99Z"/><path d="m92.7,86.74c.55,0,.99-.44.99-.99s-.44-.99-.99-.99-.99.44-.99.99.44.99.99.99Z"/><path d="m96.69,86.74c.55,0,.99-.44.99-.99s-.44-.99-.99-.99-.99.44-.99.99.44.99.99.99Z"/><path d="m100.68,86.74c.55,0,.99-.44.99-.99s-.44-.99-.99-.99-.99.44-.99.99.44.99.99.99Z"/><path d="m104.67,86.74c.55,0,.99-.44.99-.99s-.44-.99-.99-.99-.99.44-.99.99.44.99.99.99Z"/><path d="m108.66,86.74c.55,0,.99-.44.99-.99s-.44-.99-.99-.99-.99.44-.99.99.44.99.99.99Z"/><path d="m112.65,86.74c.54,0,.99-.44.99-.99s-.44-.99-.99-.99-.99.44-.99.99.44.99.99.99Z"/><path d="m116.63,86.74c.54,0,.99-.44.99-.99s-.44-.99-.99-.99-.99.44-.99.99.44.99.99.99Z"/><path d="m120.62,86.74c.54,0,.99-.44.99-.99s-.44-.99-.99-.99-.99.44-.99.99.44.99.99.99Z"/><path d="m124.61,86.74c.55,0,.99-.44.99-.99s-.44-.99-.99-.99-.99.44-.99.99.44.99.99.99Z"/><path d="m128.6,86.74c.55,0,.99-.44.99-.99s-.44-.99-.99-.99-.99.44-.99.99.44.99.99.99Z"/><path d="m132.59,86.74c.55,0,.99-.44.99-.99s-.44-.99-.99-.99-.99.44-.99.99.44.99.99.99Z"/><path d="m60.8,90.73c.55,0,.99-.44.99-.99s-.44-.99-.99-.99-.99.44-.99.99.44.99.99.99Z"/><path d="m64.79,90.73c.55,0,.99-.44.99-.99s-.44-.99-.99-.99-.99.44-.99.99.44.99.99.99Z"/><path d="m68.77,90.73c.55,0,.99-.44.99-.99s-.44-.99-.99-.99-.99.44-.99.99.44.99.99.99Z"/><path d="m72.76,90.73c.55,0,.99-.44.99-.99s-.44-.99-.99-.99-.99.44-.99.99.44.99.99.99Z"/><path d="m76.75,90.73c.55,0,.99-.44.99-.99s-.44-.99-.99-.99-.99.44-.99.99.44.99.99.99Z"/><path d="m80.74,90.73c.55,0,.99-.44.99-.99s-.44-.99-.99-.99-.99.44-.99.99.44.99.99.99Z"/><path d="m84.73,90.73c.55,0,.99-.44.99-.99s-.44-.99-.99-.99-.99.44-.99.99.44.99.99.99Z"/><path d="m88.72,90.73c.55,0,.99-.44.99-.99s-.44-.99-.99-.99-.99.44-.99.99.44.99.99.99Z"/><path d="m92.7,90.73c.55,0,.99-.44.99-.99s-.44-.99-.99-.99-.99.44-.99.99.44.99.99.99Z"/><path d="m96.69,90.73c.55,0,.99-.44.99-.99s-.44-.99-.99-.99-.99.44-.99.99.44.99.99.99Z"/><path d="m100.68,90.73c.55,0,.99-.44.99-.99s-.44-.99-.99-.99-.99.44-.99.99.44.99.99.99Z"/><path d="m104.67,90.73c.55,0,.99-.44.99-.99s-.44-.99-.99-.99-.99.44-.99.99.44.99.99.99Z"/><path d="m108.66,90.73c.55,0,.99-.44.99-.99s-.44-.99-.99-.99-.99.44-.99.99.44.99.99.99Z"/><path d="m112.65,90.73c.54,0,.99-.44.99-.99s-.44-.99-.99-.99-.99.44-.99.99.44.99.99.99Z"/><path d="m116.63,90.73c.54,0,.99-.44.99-.99s-.44-.99-.99-.99-.99.44-.99.99.44.99.99.99Z"/><path d="m120.62,90.73c.54,0,.99-.44.99-.99s-.44-.99-.99-.99-.99.44-.99.99.44.99.99.99Z"/><path d="m124.61,90.73c.55,0,.99-.44.99-.99s-.44-.99-.99-.99-.99.44-.99.99.44.99.99.99Z"/><path d="m128.6,90.73c.55,0,.99-.44.99-.99s-.44-.99-.99-.99-.99.44-.99.99.44.99.99.99Z"/><path d="m132.59,90.73c.55,0,.99-.44.99-.99s-.44-.99-.99-.99-.99.44-.99.99.44.99.99.99Z"/><path d="m60.8,94.72c.55,0,.99-.44.99-.99s-.44-.99-.99-.99-.99.44-.99.99.44.99.99.99Z"/><path d="m64.79,94.72c.55,0,.99-.44.99-.99s-.44-.99-.99-.99-.99.44-.99.99.44.99.99.99Z"/><path d="m68.77,94.72c.55,0,.99-.44.99-.99s-.44-.99-.99-.99-.99.44-.99.99.44.99.99.99Z"/><path d="m72.76,94.72c.55,0,.99-.44.99-.99s-.44-.99-.99-.99-.99.44-.99.99.44.99.99.99Z"/><path d="m76.75,94.72c.55,0,.99-.44.99-.99s-.44-.99-.99-.99-.99.44-.99.99.44.99.99.99Z"/><path d="m80.74,94.72c.55,0,.99-.44.99-.99s-.44-.99-.99-.99-.99.44-.99.99.44.99.99.99Z"/><path d="m84.73,94.72c.55,0,.99-.44.99-.99s-.44-.99-.99-.99-.99.44-.99.99.44.99.99.99Z"/><path d="m88.72,94.72c.55,0,.99-.44.99-.99s-.44-.99-.99-.99-.99.44-.99.99.44.99.99.99Z"/><path d="m92.7,94.72c.55,0,.99-.44.99-.99s-.44-.99-.99-.99-.99.44-.99.99.44.99.99.99Z"/><path d="m96.69,94.72c.55,0,.99-.44.99-.99s-.44-.99-.99-.99-.99.44-.99.99.44.99.99.99Z"/><path d="m100.68,94.72c.55,0,.99-.44.99-.99s-.44-.99-.99-.99-.99.44-.99.99.44.99.99.99Z"/><path d="m104.67,94.72c.55,0,.99-.44.99-.99s-.44-.99-.99-.99-.99.44-.99.99.44.99.99.99Z"/><path d="m108.66,94.72c.55,0,.99-.44.99-.99s-.44-.99-.99-.99-.99.44-.99.99.44.99.99.99Z"/><path d="m112.65,94.72c.54,0,.99-.44.99-.99s-.44-.99-.99-.99-.99.44-.99.99.44.99.99.99Z"/><path d="m116.63,94.72c.54,0,.99-.44.99-.99s-.44-.99-.99-.99-.99.44-.99.99.44.99.99.99Z"/><path d="m120.62,94.72c.54,0,.99-.44.99-.99s-.44-.99-.99-.99-.99.44-.99.99.44.99.99.99Z"/><path d="m124.61,94.72c.55,0,.99-.44.99-.99s-.44-.99-.99-.99-.99.44-.99.99.44.99.99.99Z"/><path d="m128.6,94.72c.55,0,.99-.44.99-.99s-.44-.99-.99-.99-.99.44-.99.99.44.99.99.99Z"/><path d="m132.59,94.72c.55,0,.99-.44.99-.99s-.44-.99-.99-.99-.99.44-.99.99.44.99.99.99Z"/><path d="m52.82,98.7c.55,0,.99-.44.99-.99s-.44-.99-.99-.99-.99.44-.99.99.44.99.99.99Z"/><path d="m56.81,98.7c.55,0,.99-.44.99-.99s-.44-.99-.99-.99-.99.44-.99.99.44.99.99.99Z"/><path d="m60.8,98.7c.55,0,.99-.44.99-.99s-.44-.99-.99-.99-.99.44-.99.99.44.99.99.99Z"/><path d="m64.79,98.7c.55,0,.99-.44.99-.99s-.44-.99-.99-.99-.99.44-.99.99.44.99.99.99Z"/><path d="m68.77,98.7c.55,0,.99-.44.99-.99s-.44-.99-.99-.99-.99.44-.99.99.44.99.99.99Z"/><path d="m72.76,98.7c.55,0,.99-.44.99-.99s-.44-.99-.99-.99-.99.44-.99.99.44.99.99.99Z"/><path d="m76.75,98.7c.55,0,.99-.44.99-.99s-.44-.99-.99-.99-.99.44-.99.99.44.99.99.99Z"/><path d="m80.74,98.7c.55,0,.99-.44.99-.99s-.44-.99-.99-.99-.99.44-.99.99.44.99.99.99Z"/><path d="m84.73,98.7c.55,0,.99-.44.99-.99s-.44-.99-.99-.99-.99.44-.99.99.44.99.99.99Z"/><path d="m88.72,98.7c.55,0,.99-.44.99-.99s-.44-.99-.99-.99-.99.44-.99.99.44.99.99.99Z"/><path d="m92.7,98.7c.55,0,.99-.44.99-.99s-.44-.99-.99-.99-.99.44-.99.99.44.99.99.99Z"/><path d="m96.69,98.7c.55,0,.99-.44.99-.99s-.44-.99-.99-.99-.99.44-.99.99.44.99.99.99Z"/><path d="m100.68,98.7c.55,0,.99-.44.99-.99s-.44-.99-.99-.99-.99.44-.99.99.44.99.99.99Z"/><path d="m104.67,98.7c.55,0,.99-.44.99-.99s-.44-.99-.99-.99-.99.44-.99.99.44.99.99.99Z"/><path d="m108.66,98.7c.55,0,.99-.44.99-.99s-.44-.99-.99-.99-.99.44-.99.99.44.99.99.99Z"/><path d="m112.65,98.7c.54,0,.99-.44.99-.99s-.44-.99-.99-.99-.99.44-.99.99.44.99.99.99Z"/><path d="m116.63,98.7c.54,0,.99-.44.99-.99s-.44-.99-.99-.99-.99.44-.99.99.44.99.99.99Z"/><path d="m120.62,98.7c.54,0,.99-.44.99-.99s-.44-.99-.99-.99-.99.44-.99.99.44.99.99.99Z"/><path d="m124.61,98.7c.55,0,.99-.44.99-.99s-.44-.99-.99-.99-.99.44-.99.99.44.99.99.99Z"/><path d="m128.6,98.7c.55,0,.99-.44.99-.99s-.44-.99-.99-.99-.99.44-.99.99.44.99.99.99Z"/><path d="m48.83,102.69c.55,0,.99-.44.99-.99s-.44-.99-.99-.99-.99.44-.99.99.44.99.99.99Z"/><path d="m52.82,102.69c.55,0,.99-.44.99-.99s-.44-.99-.99-.99-.99.44-.99.99.44.99.99.99Z"/><circle cx="56.81" cy="101.7" r=".99"/><circle cx="60.8" cy="101.7" r=".99"/><path d="m64.79,102.69c.55,0,.99-.44.99-.99s-.44-.99-.99-.99-.99.44-.99.99.44.99.99.99Z"/><path d="m68.77,102.69c.55,0,.99-.44.99-.99s-.44-.99-.99-.99-.99.44-.99.99.44.99.99.99Z"/><path d="m72.76,102.69c.55,0,.99-.44.99-.99s-.44-.99-.99-.99-.99.44-.99.99.44.99.99.99Z"/><path d="m76.75,102.69c.55,0,.99-.44.99-.99s-.44-.99-.99-.99-.99.44-.99.99.44.99.99.99Z"/><path d="m80.74,102.69c.55,0,.99-.44.99-.99s-.44-.99-.99-.99-.99.44-.99.99.44.99.99.99Z"/><path d="m84.73,102.69c.55,0,.99-.44.99-.99s-.44-.99-.99-.99-.99.44-.99.99.44.99.99.99Z"/><path d="m88.72,102.69c.55,0,.99-.44.99-.99s-.44-.99-.99-.99-.99.44-.99.99.44.99.99.99Z"/><circle cx="92.7" cy="101.7" r=".99"/><path d="m96.69,102.69c.55,0,.99-.44.99-.99s-.44-.99-.99-.99-.99.44-.99.99.44.99.99.99Z"/><path d="m100.68,102.69c.55,0,.99-.44.99-.99s-.44-.99-.99-.99-.99.44-.99.99.44.99.99.99Z"/><path d="m104.67,102.69c.55,0,.99-.44.99-.99s-.44-.99-.99-.99-.99.44-.99.99.44.99.99.99Z"/><path d="m108.66,102.69c.55,0,.99-.44.99-.99s-.44-.99-.99-.99-.99.44-.99.99.44.99.99.99Z"/><path d="m112.65,102.69c.54,0,.99-.44.99-.99s-.44-.99-.99-.99-.99.44-.99.99.44.99.99.99Z"/><path d="m116.63,102.69c.54,0,.99-.44.99-.99s-.44-.99-.99-.99-.99.44-.99.99.44.99.99.99Z"/><path d="m120.62,102.69c.54,0,.99-.44.99-.99s-.44-.99-.99-.99-.99.44-.99.99.44.99.99.99Z"/><path d="m124.61,102.69c.55,0,.99-.44.99-.99s-.44-.99-.99-.99-.99.44-.99.99.44.99.99.99Z"/><path d="m128.6,102.69c.55,0,.99-.44.99-.99s-.44-.99-.99-.99-.99.44-.99.99.44.99.99.99Z"/><path d="m48.83,106.68c.55,0,.99-.44.99-.99s-.44-.99-.99-.99-.99.44-.99.99.44.99.99.99Z"/><path d="m52.82,106.68c.55,0,.99-.44.99-.99s-.44-.99-.99-.99-.99.44-.99.99.44.99.99.99Z"/><path d="m56.81,106.68c.55,0,.99-.44.99-.99s-.44-.99-.99-.99-.99.44-.99.99.44.99.99.99Z"/><path d="m60.8,106.68c.55,0,.99-.44.99-.99s-.44-.99-.99-.99-.99.44-.99.99.44.99.99.99Z"/><path d="m64.79,106.68c.55,0,.99-.44.99-.99s-.44-.99-.99-.99-.99.44-.99.99.44.99.99.99Z"/><path d="m68.77,106.68c.55,0,.99-.44.99-.99s-.44-.99-.99-.99-.99.44-.99.99.44.99.99.99Z"/><path d="m72.76,106.68c.55,0,.99-.44.99-.99s-.44-.99-.99-.99-.99.44-.99.99.44.99.99.99Z"/><path d="m76.75,106.68c.55,0,.99-.44.99-.99s-.44-.99-.99-.99-.99.44-.99.99.44.99.99.99Z"/><path d="m80.74,106.68c.55,0,.99-.44.99-.99s-.44-.99-.99-.99-.99.44-.99.99.44.99.99.99Z"/><path d="m84.73,106.68c.55,0,.99-.44.99-.99s-.44-.99-.99-.99-.99.44-.99.99.44.99.99.99Z"/><path d="m88.72,106.68c.55,0,.99-.44.99-.99s-.44-.99-.99-.99-.99.44-.99.99.44.99.99.99Z"/><path d="m92.7,106.68c.55,0,.99-.44.99-.99s-.44-.99-.99-.99-.99.44-.99.99.44.99.99.99Z"/><path d="m96.69,106.68c.55,0,.99-.44.99-.99s-.44-.99-.99-.99-.99.44-.99.99.44.99.99.99Z"/><path d="m100.68,106.68c.55,0,.99-.44.99-.99s-.44-.99-.99-.99-.99.44-.99.99.44.99.99.99Z"/><path d="m104.67,106.68c.55,0,.99-.44.99-.99s-.44-.99-.99-.99-.99.44-.99.99.44.99.99.99Z"/><path d="m108.66,106.68c.55,0,.99-.44.99-.99s-.44-.99-.99-.99-.99.44-.99.99.44.99.99.99Z"/><path d="m112.65,106.68c.54,0,.99-.44.99-.99s-.44-.99-.99-.99-.99.44-.99.99.44.99.99.99Z"/><path d="m116.63,106.68c.54,0,.99-.44.99-.99s-.44-.99-.99-.99-.99.44-.99.99.44.99.99.99Z"/><path d="m120.62,106.68c.54,0,.99-.44.99-.99s-.44-.99-.99-.99-.99.44-.99.99.44.99.99.99Z"/><path d="m48.83,110.67c.55,0,.99-.44.99-.99s-.44-.99-.99-.99-.99.44-.99.99.44.99.99.99Z"/><path d="m52.82,110.67c.55,0,.99-.44.99-.99s-.44-.99-.99-.99-.99.44-.99.99.44.99.99.99Z"/><path d="m56.81,110.67c.55,0,.99-.44.99-.99s-.44-.99-.99-.99-.99.44-.99.99.44.99.99.99Z"/><path d="m60.8,110.67c.55,0,.99-.44.99-.99s-.44-.99-.99-.99-.99.44-.99.99.44.99.99.99Z"/><path d="m64.79,110.67c.55,0,.99-.44.99-.99s-.44-.99-.99-.99-.99.44-.99.99.44.99.99.99Z"/><path d="m68.77,110.67c.55,0,.99-.44.99-.99s-.44-.99-.99-.99-.99.44-.99.99.44.99.99.99Z"/><path d="m72.76,110.67c.55,0,.99-.44.99-.99s-.44-.99-.99-.99-.99.44-.99.99.44.99.99.99Z"/><path d="m76.75,110.67c.55,0,.99-.44.99-.99s-.44-.99-.99-.99-.99.44-.99.99.44.99.99.99Z"/><path d="m80.74,110.67c.55,0,.99-.44.99-.99s-.44-.99-.99-.99-.99.44-.99.99.44.99.99.99Z"/><path d="m84.73,110.67c.55,0,.99-.44.99-.99s-.44-.99-.99-.99-.99.44-.99.99.44.99.99.99Z"/><path d="m88.72,110.67c.55,0,.99-.44.99-.99s-.44-.99-.99-.99-.99.44-.99.99.44.99.99.99Z"/><path d="m92.7,110.67c.55,0,.99-.44.99-.99s-.44-.99-.99-.99-.99.44-.99.99.44.99.99.99Z"/><path d="m96.69,110.67c.55,0,.99-.44.99-.99s-.44-.99-.99-.99-.99.44-.99.99.44.99.99.99Z"/><path d="m100.68,110.67c.55,0,.99-.44.99-.99s-.44-.99-.99-.99-.99.44-.99.99.44.99.99.99Z"/><path d="m104.67,110.67c.55,0,.99-.44.99-.99s-.44-.99-.99-.99-.99.44-.99.99.44.99.99.99Z"/><path d="m108.66,110.67c.55,0,.99-.44.99-.99s-.44-.99-.99-.99-.99.44-.99.99.44.99.99.99Z"/><path d="m112.65,110.67c.54,0,.99-.44.99-.99s-.44-.99-.99-.99-.99.44-.99.99.44.99.99.99Z"/><path d="m116.63,110.67c.54,0,.99-.44.99-.99s-.44-.99-.99-.99-.99.44-.99.99.44.99.99.99Z"/><path d="m48.83,114.66c.55,0,.99-.44.99-.99s-.44-.99-.99-.99-.99.44-.99.99.44.99.99.99Z"/><path d="m52.82,114.66c.55,0,.99-.44.99-.99s-.44-.99-.99-.99-.99.44-.99.99.44.99.99.99Z"/><path d="m56.81,114.66c.55,0,.99-.44.99-.99s-.44-.99-.99-.99-.99.44-.99.99.44.99.99.99Z"/><path d="m60.8,114.66c.55,0,.99-.44.99-.99s-.44-.99-.99-.99-.99.44-.99.99.44.99.99.99Z"/><path d="m64.79,114.66c.55,0,.99-.44.99-.99s-.44-.99-.99-.99-.99.44-.99.99.44.99.99.99Z"/><path d="m68.77,114.66c.55,0,.99-.44.99-.99s-.44-.99-.99-.99-.99.44-.99.99.44.99.99.99Z"/><path d="m72.76,114.66c.55,0,.99-.44.99-.99s-.44-.99-.99-.99-.99.44-.99.99.44.99.99.99Z"/><path d="m76.75,114.66c.55,0,.99-.44.99-.99s-.44-.99-.99-.99-.99.44-.99.99.44.99.99.99Z"/><path d="m80.74,114.66c.55,0,.99-.44.99-.99s-.44-.99-.99-.99-.99.44-.99.99.44.99.99.99Z"/><path d="m84.73,114.66c.55,0,.99-.44.99-.99s-.44-.99-.99-.99-.99.44-.99.99.44.99.99.99Z"/><path d="m88.72,114.66c.55,0,.99-.44.99-.99s-.44-.99-.99-.99-.99.44-.99.99.44.99.99.99Z"/><path d="m92.7,114.66c.55,0,.99-.44.99-.99s-.44-.99-.99-.99-.99.44-.99.99.44.99.99.99Z"/><path d="m96.69,114.66c.55,0,.99-.44.99-.99s-.44-.99-.99-.99-.99.44-.99.99.44.99.99.99Z"/><path d="m100.68,114.66c.55,0,.99-.44.99-.99s-.44-.99-.99-.99-.99.44-.99.99.44.99.99.99Z"/><path d="m104.67,114.66c.55,0,.99-.44.99-.99s-.44-.99-.99-.99-.99.44-.99.99.44.99.99.99Z"/><path d="m108.66,114.66c.55,0,.99-.44.99-.99s-.44-.99-.99-.99-.99.44-.99.99.44.99.99.99Z"/><path d="m112.65,114.66c.54,0,.99-.44.99-.99s-.44-.99-.99-.99-.99.44-.99.99.44.99.99.99Z"/><path d="m48.83,118.64c.55,0,.99-.44.99-.99s-.44-.99-.99-.99-.99.44-.99.99.44.99.99.99Z"/><path d="m52.82,118.64c.55,0,.99-.44.99-.99s-.44-.99-.99-.99-.99.44-.99.99.44.99.99.99Z"/><path d="m56.81,118.64c.55,0,.99-.44.99-.99s-.44-.99-.99-.99-.99.44-.99.99.44.99.99.99Z"/><path d="m60.8,118.64c.55,0,.99-.44.99-.99s-.44-.99-.99-.99-.99.44-.99.99.44.99.99.99Z"/><path d="m64.79,118.64c.55,0,.99-.44.99-.99s-.44-.99-.99-.99-.99.44-.99.99.44.99.99.99Z"/><path d="m68.77,118.64c.55,0,.99-.44.99-.99s-.44-.99-.99-.99-.99.44-.99.99.44.99.99.99Z"/><path d="m72.76,118.64c.55,0,.99-.44.99-.99s-.44-.99-.99-.99-.99.44-.99.99.44.99.99.99Z"/><path d="m76.75,118.64c.55,0,.99-.44.99-.99s-.44-.99-.99-.99-.99.44-.99.99.44.99.99.99Z"/><path d="m80.74,118.64c.55,0,.99-.44.99-.99s-.44-.99-.99-.99-.99.44-.99.99.44.99.99.99Z"/><path d="m84.73,118.64c.55,0,.99-.44.99-.99s-.44-.99-.99-.99-.99.44-.99.99.44.99.99.99Z"/><path d="m88.72,118.64c.55,0,.99-.44.99-.99s-.44-.99-.99-.99-.99.44-.99.99.44.99.99.99Z"/><path d="m92.7,118.64c.55,0,.99-.44.99-.99s-.44-.99-.99-.99-.99.44-.99.99.44.99.99.99Z"/><path d="m96.69,118.64c.55,0,.99-.44.99-.99s-.44-.99-.99-.99-.99.44-.99.99.44.99.99.99Z"/><path d="m100.68,118.64c.55,0,.99-.44.99-.99s-.44-.99-.99-.99-.99.44-.99.99.44.99.99.99Z"/><path d="m104.67,118.64c.55,0,.99-.44.99-.99s-.44-.99-.99-.99-.99.44-.99.99.44.99.99.99Z"/><path d="m108.66,118.64c.55,0,.99-.44.99-.99s-.44-.99-.99-.99-.99.44-.99.99.44.99.99.99Z"/><path d="m48.83,122.63c.55,0,.99-.44.99-.99s-.44-.99-.99-.99-.99.44-.99.99.44.99.99.99Z"/><path d="m52.82,122.63c.55,0,.99-.44.99-.99s-.44-.99-.99-.99-.99.44-.99.99.44.99.99.99Z"/><path d="m56.81,122.63c.55,0,.99-.44.99-.99s-.44-.99-.99-.99-.99.44-.99.99.44.99.99.99Z"/><path d="m60.8,122.63c.55,0,.99-.44.99-.99s-.44-.99-.99-.99-.99.44-.99.99.44.99.99.99Z"/><path d="m64.79,122.63c.55,0,.99-.44.99-.99s-.44-.99-.99-.99-.99.44-.99.99.44.99.99.99Z"/><path d="m68.77,122.63c.55,0,.99-.44.99-.99s-.44-.99-.99-.99-.99.44-.99.99.44.99.99.99Z"/><path d="m72.76,122.63c.55,0,.99-.44.99-.99s-.44-.99-.99-.99-.99.44-.99.99.44.99.99.99Z"/><path d="m76.75,122.63c.55,0,.99-.44.99-.99s-.44-.99-.99-.99-.99.44-.99.99.44.99.99.99Z"/><path d="m80.74,122.63c.55,0,.99-.44.99-.99s-.44-.99-.99-.99-.99.44-.99.99.44.99.99.99Z"/><path d="m84.73,122.63c.55,0,.99-.44.99-.99s-.44-.99-.99-.99-.99.44-.99.99.44.99.99.99Z"/><path d="m88.72,122.63c.55,0,.99-.44.99-.99s-.44-.99-.99-.99-.99.44-.99.99.44.99.99.99Z"/><path d="m92.7,122.63c.55,0,.99-.44.99-.99s-.44-.99-.99-.99-.99.44-.99.99.44.99.99.99Z"/><path d="m96.69,122.63c.55,0,.99-.44.99-.99s-.44-.99-.99-.99-.99.44-.99.99.44.99.99.99Z"/><path d="m100.68,122.63c.55,0,.99-.44.99-.99s-.44-.99-.99-.99-.99.44-.99.99.44.99.99.99Z"/><path d="m104.67,122.63c.55,0,.99-.44.99-.99s-.44-.99-.99-.99-.99.44-.99.99.44.99.99.99Z"/><path d="m48.83,126.62c.55,0,.99-.44.99-.99s-.44-.99-.99-.99-.99.44-.99.99.44.99.99.99Z"/><path d="m52.82,126.62c.55,0,.99-.44.99-.99s-.44-.99-.99-.99-.99.44-.99.99.44.99.99.99Z"/><path d="m56.81,126.62c.55,0,.99-.44.99-.99s-.44-.99-.99-.99-.99.44-.99.99.44.99.99.99Z"/><path d="m60.8,126.62c.55,0,.99-.44.99-.99s-.44-.99-.99-.99-.99.44-.99.99.44.99.99.99Z"/><path d="m64.79,126.62c.55,0,.99-.44.99-.99s-.44-.99-.99-.99-.99.44-.99.99.44.99.99.99Z"/><path d="m68.77,126.62c.55,0,.99-.44.99-.99s-.44-.99-.99-.99-.99.44-.99.99.44.99.99.99Z"/><path d="m72.76,126.62c.55,0,.99-.44.99-.99s-.44-.99-.99-.99-.99.44-.99.99.44.99.99.99Z"/><path d="m76.75,126.62c.55,0,.99-.44.99-.99s-.44-.99-.99-.99-.99.44-.99.99.44.99.99.99Z"/><path d="m80.74,126.62c.55,0,.99-.44.99-.99s-.44-.99-.99-.99-.99.44-.99.99.44.99.99.99Z"/><path d="m84.73,126.62c.55,0,.99-.44.99-.99s-.44-.99-.99-.99-.99.44-.99.99.44.99.99.99Z"/><path d="m88.72,126.62c.55,0,.99-.44.99-.99s-.44-.99-.99-.99-.99.44-.99.99.44.99.99.99Z"/><path d="m92.7,126.62c.55,0,.99-.44.99-.99s-.44-.99-.99-.99-.99.44-.99.99.44.99.99.99Z"/><path d="m96.69,126.62c.55,0,.99-.44.99-.99s-.44-.99-.99-.99-.99.44-.99.99.44.99.99.99Z"/><path d="m100.68,126.62c.55,0,.99-.44.99-.99s-.44-.99-.99-.99-.99.44-.99.99.44.99.99.99Z"/><path d="m48.83,130.61c.55,0,.99-.44.99-.99s-.44-.99-.99-.99-.99.44-.99.99.44.99.99.99Z"/><path d="m52.82,130.61c.55,0,.99-.44.99-.99s-.44-.99-.99-.99-.99.44-.99.99.44.99.99.99Z"/><path d="m56.81,130.61c.55,0,.99-.44.99-.99s-.44-.99-.99-.99-.99.44-.99.99.44.99.99.99Z"/><path d="m60.8,130.61c.55,0,.99-.44.99-.99s-.44-.99-.99-.99-.99.44-.99.99.44.99.99.99Z"/><path d="m64.79,130.61c.55,0,.99-.44.99-.99s-.44-.99-.99-.99-.99.44-.99.99.44.99.99.99Z"/><path d="m68.77,130.61c.55,0,.99-.44.99-.99s-.44-.99-.99-.99-.99.44-.99.99.44.99.99.99Z"/><path d="m72.76,130.61c.55,0,.99-.44.99-.99s-.44-.99-.99-.99-.99.44-.99.99.44.99.99.99Z"/><path d="m76.75,130.61c.55,0,.99-.44.99-.99s-.44-.99-.99-.99-.99.44-.99.99.44.99.99.99Z"/><path d="m80.74,130.61c.55,0,.99-.44.99-.99s-.44-.99-.99-.99-.99.44-.99.99.44.99.99.99Z"/><path d="m84.73,130.61c.55,0,.99-.44.99-.99s-.44-.99-.99-.99-.99.44-.99.99.44.99.99.99Z"/><path d="m88.72,130.61c.55,0,.99-.44.99-.99s-.44-.99-.99-.99-.99.44-.99.99.44.99.99.99Z"/><path d="m92.7,130.61c.55,0,.99-.44.99-.99s-.44-.99-.99-.99-.99.44-.99.99.44.99.99.99Z"/><path d="m96.69,130.61c.55,0,.99-.44.99-.99s-.44-.99-.99-.99-.99.44-.99.99.44.99.99.99Z"/><path d="m48.83,134.6c.55,0,.99-.44.99-.99s-.44-.99-.99-.99-.99.44-.99.99.44.99.99.99Z"/><path d="m52.82,134.6c.55,0,.99-.44.99-.99s-.44-.99-.99-.99-.99.44-.99.99.44.99.99.99Z"/><path d="m56.81,134.6c.55,0,.99-.44.99-.99s-.44-.99-.99-.99-.99.44-.99.99.44.99.99.99Z"/><path d="m60.8,134.6c.55,0,.99-.44.99-.99s-.44-.99-.99-.99-.99.44-.99.99.44.99.99.99Z"/><path d="m64.79,134.6c.55,0,.99-.44.99-.99s-.44-.99-.99-.99-.99.44-.99.99.44.99.99.99Z"/><path d="m68.77,134.6c.55,0,.99-.44.99-.99s-.44-.99-.99-.99-.99.44-.99.99.44.99.99.99Z"/><path d="m72.76,134.6c.55,0,.99-.44.99-.99s-.44-.99-.99-.99-.99.44-.99.99.44.99.99.99Z"/><path d="m76.75,134.6c.55,0,.99-.44.99-.99s-.44-.99-.99-.99-.99.44-.99.99.44.99.99.99Z"/><path d="m80.74,134.6c.55,0,.99-.44.99-.99s-.44-.99-.99-.99-.99.44-.99.99.44.99.99.99Z"/><path d="m84.73,134.6c.55,0,.99-.44.99-.99s-.44-.99-.99-.99-.99.44-.99.99.44.99.99.99Z"/><path d="m88.72,134.6c.55,0,.99-.44.99-.99s-.44-.99-.99-.99-.99.44-.99.99.44.99.99.99Z"/><path d="m92.7,134.6c.55,0,.99-.44.99-.99s-.44-.99-.99-.99-.99.44-.99.99.44.99.99.99Z"/><path d="m96.69,134.6c.55,0,.99-.44.99-.99s-.44-.99-.99-.99-.99.44-.99.99.44.99.99.99Z"/><path d="m48.83,138.59c.55,0,.99-.44.99-.99s-.44-.99-.99-.99-.99.44-.99.99.44.99.99.99Z"/><path d="m52.82,138.59c.55,0,.99-.44.99-.99s-.44-.99-.99-.99-.99.44-.99.99.44.99.99.99Z"/><path d="m56.81,138.59c.55,0,.99-.44.99-.99s-.44-.99-.99-.99-.99.44-.99.99.44.99.99.99Z"/><path d="m60.8,138.59c.55,0,.99-.44.99-.99s-.44-.99-.99-.99-.99.44-.99.99.44.99.99.99Z"/><path d="m64.79,138.59c.55,0,.99-.44.99-.99s-.44-.99-.99-.99-.99.44-.99.99.44.99.99.99Z"/><path d="m68.77,138.59c.55,0,.99-.44.99-.99s-.44-.99-.99-.99-.99.44-.99.99.44.99.99.99Z"/><path d="m72.76,138.59c.55,0,.99-.44.99-.99s-.44-.99-.99-.99-.99.44-.99.99.44.99.99.99Z"/><path d="m76.75,138.59c.55,0,.99-.44.99-.99s-.44-.99-.99-.99-.99.44-.99.99.44.99.99.99Z"/><path d="m80.74,138.59c.55,0,.99-.44.99-.99s-.44-.99-.99-.99-.99.44-.99.99.44.99.99.99Z"/><path d="m84.73,138.59c.55,0,.99-.44.99-.99s-.44-.99-.99-.99-.99.44-.99.99.44.99.99.99Z"/><path d="m88.72,138.59c.55,0,.99-.44.99-.99s-.44-.99-.99-.99-.99.44-.99.99.44.99.99.99Z"/><path d="m92.7,138.59c.55,0,.99-.44.99-.99s-.44-.99-.99-.99-.99.44-.99.99.44.99.99.99Z"/><path d="m96.69,138.59c.55,0,.99-.44.99-.99s-.44-.99-.99-.99-.99.44-.99.99.44.99.99.99Z"/><path d="m100.68,138.59c.55,0,.99-.44.99-.99s-.44-.99-.99-.99-.99.44-.99.99.44.99.99.99Z"/><path d="m52.82,142.57c.55,0,.99-.44.99-.99s-.44-.99-.99-.99-.99.44-.99.99.44.99.99.99Z"/><path d="m56.81,142.57c.55,0,.99-.44.99-.99s-.44-.99-.99-.99-.99.44-.99.99.44.99.99.99Z"/><path d="m60.8,142.57c.55,0,.99-.44.99-.99s-.44-.99-.99-.99-.99.44-.99.99.44.99.99.99Z"/><path d="m64.79,142.57c.55,0,.99-.44.99-.99s-.44-.99-.99-.99-.99.44-.99.99.44.99.99.99Z"/><path d="m68.77,142.57c.55,0,.99-.44.99-.99s-.44-.99-.99-.99-.99.44-.99.99.44.99.99.99Z"/><path d="m72.76,142.57c.55,0,.99-.44.99-.99s-.44-.99-.99-.99-.99.44-.99.99.44.99.99.99Z"/><path d="m76.75,142.57c.55,0,.99-.44.99-.99s-.44-.99-.99-.99-.99.44-.99.99.44.99.99.99Z"/><path d="m80.74,142.57c.55,0,.99-.44.99-.99s-.44-.99-.99-.99-.99.44-.99.99.44.99.99.99Z"/><path d="m84.73,142.57c.55,0,.99-.44.99-.99s-.44-.99-.99-.99-.99.44-.99.99.44.99.99.99Z"/><path d="m88.72,142.57c.55,0,.99-.44.99-.99s-.44-.99-.99-.99-.99.44-.99.99.44.99.99.99Z"/><path d="m92.7,142.57c.55,0,.99-.44.99-.99s-.44-.99-.99-.99-.99.44-.99.99.44.99.99.99Z"/><path d="m96.69,142.57c.55,0,.99-.44.99-.99s-.44-.99-.99-.99-.99.44-.99.99.44.99.99.99Z"/><path d="m100.68,142.57c.55,0,.99-.44.99-.99s-.44-.99-.99-.99-.99.44-.99.99.44.99.99.99Z"/><path d="m52.82,146.56c.55,0,.99-.44.99-.99s-.44-.99-.99-.99-.99.44-.99.99.44.99.99.99Z"/><path d="m56.81,146.56c.55,0,.99-.44.99-.99s-.44-.99-.99-.99-.99.44-.99.99.44.99.99.99Z"/><path d="m60.8,146.56c.55,0,.99-.44.99-.99s-.44-.99-.99-.99-.99.44-.99.99.44.99.99.99Z"/><path d="m64.79,146.56c.55,0,.99-.44.99-.99s-.44-.99-.99-.99-.99.44-.99.99.44.99.99.99Z"/><path d="m68.77,146.56c.55,0,.99-.44.99-.99s-.44-.99-.99-.99-.99.44-.99.99.44.99.99.99Z"/><path d="m72.76,146.56c.55,0,.99-.44.99-.99s-.44-.99-.99-.99-.99.44-.99.99.44.99.99.99Z"/><path d="m76.75,146.56c.55,0,.99-.44.99-.99s-.44-.99-.99-.99-.99.44-.99.99.44.99.99.99Z"/><path d="m80.74,146.56c.55,0,.99-.44.99-.99s-.44-.99-.99-.99-.99.44-.99.99.44.99.99.99Z"/><path d="m84.73,146.56c.55,0,.99-.44.99-.99s-.44-.99-.99-.99-.99.44-.99.99.44.99.99.99Z"/><path d="m88.72,146.56c.55,0,.99-.44.99-.99s-.44-.99-.99-.99-.99.44-.99.99.44.99.99.99Z"/><path d="m92.7,146.56c.55,0,.99-.44.99-.99s-.44-.99-.99-.99-.99.44-.99.99.44.99.99.99Z"/><path d="m96.69,146.56c.55,0,.99-.44.99-.99s-.44-.99-.99-.99-.99.44-.99.99.44.99.99.99Z"/><path d="m48.83,150.55c.55,0,.99-.44.99-.99s-.44-.99-.99-.99-.99.44-.99.99.44.99.99.99Z"/><path d="m52.82,150.55c.55,0,.99-.44.99-.99s-.44-.99-.99-.99-.99.44-.99.99.44.99.99.99Z"/><path d="m56.81,150.55c.55,0,.99-.44.99-.99s-.44-.99-.99-.99-.99.44-.99.99.44.99.99.99Z"/><path d="m60.8,150.55c.55,0,.99-.44.99-.99s-.44-.99-.99-.99-.99.44-.99.99.44.99.99.99Z"/><path d="m64.79,150.55c.55,0,.99-.44.99-.99s-.44-.99-.99-.99-.99.44-.99.99.44.99.99.99Z"/><path d="m68.77,150.55c.55,0,.99-.44.99-.99s-.44-.99-.99-.99-.99.44-.99.99.44.99.99.99Z"/><path d="m72.76,150.55c.55,0,.99-.44.99-.99s-.44-.99-.99-.99-.99.44-.99.99.44.99.99.99Z"/><path d="m76.75,150.55c.55,0,.99-.44.99-.99s-.44-.99-.99-.99-.99.44-.99.99.44.99.99.99Z"/><path d="m80.74,150.55c.55,0,.99-.44.99-.99s-.44-.99-.99-.99-.99.44-.99.99.44.99.99.99Z"/><path d="m84.73,150.55c.55,0,.99-.44.99-.99s-.44-.99-.99-.99-.99.44-.99.99.44.99.99.99Z"/><path d="m88.72,150.55c.55,0,.99-.44.99-.99s-.44-.99-.99-.99-.99.44-.99.99.44.99.99.99Z"/><path d="m92.7,150.55c.55,0,.99-.44.99-.99s-.44-.99-.99-.99-.99.44-.99.99.44.99.99.99Z"/><path d="m96.69,150.55c.55,0,.99-.44.99-.99s-.44-.99-.99-.99-.99.44-.99.99.44.99.99.99Z"/><path d="m48.83,154.54c.55,0,.99-.44.99-.99s-.44-.99-.99-.99-.99.44-.99.99.44.99.99.99Z"/><path d="m52.82,154.54c.55,0,.99-.44.99-.99s-.44-.99-.99-.99-.99.44-.99.99.44.99.99.99Z"/><circle cx="56.81" cy="153.55" r=".99"/><circle cx="60.8" cy="153.55" r=".99"/><path d="m64.79,154.54c.55,0,.99-.44.99-.99s-.44-.99-.99-.99-.99.44-.99.99.44.99.99.99Z"/><path d="m68.77,154.54c.55,0,.99-.44.99-.99s-.44-.99-.99-.99-.99.44-.99.99.44.99.99.99Z"/><path d="m72.76,154.54c.55,0,.99-.44.99-.99s-.44-.99-.99-.99-.99.44-.99.99.44.99.99.99Z"/><path d="m76.75,154.54c.55,0,.99-.44.99-.99s-.44-.99-.99-.99-.99.44-.99.99.44.99.99.99Z"/><path d="m80.74,154.54c.55,0,.99-.44.99-.99s-.44-.99-.99-.99-.99.44-.99.99.44.99.99.99Z"/><path d="m84.73,154.54c.55,0,.99-.44.99-.99s-.44-.99-.99-.99-.99.44-.99.99.44.99.99.99Z"/><path d="m88.72,154.54c.55,0,.99-.44.99-.99s-.44-.99-.99-.99-.99.44-.99.99.44.99.99.99Z"/><circle cx="92.7" cy="153.55" r=".99" transform="translate(-61.14 245.76) rotate(-89.82)"/><path d="m96.69,154.54c.55,0,.99-.44.99-.99s-.44-.99-.99-.99-.99.44-.99.99.44.99.99.99Z"/><path d="m100.68,154.54c.55,0,.99-.44.99-.99s-.44-.99-.99-.99-.99.44-.99.99.44.99.99.99Z"/><path d="m104.67,154.54c.55,0,.99-.44.99-.99s-.44-.99-.99-.99-.99.44-.99.99.44.99.99.99Z"/><path d="m52.82,158.53c.55,0,.99-.44.99-.99s-.44-.99-.99-.99-.99.44-.99.99.44.99.99.99Z"/><circle cx="56.81" cy="157.54" r=".99"/><circle cx="60.8" cy="157.54" r=".99"/><path d="m64.79,158.53c.55,0,.99-.44.99-.99s-.44-.99-.99-.99-.99.44-.99.99.44.99.99.99Z"/><path d="m68.77,158.53c.55,0,.99-.44.99-.99s-.44-.99-.99-.99-.99.44-.99.99.44.99.99.99Z"/><path d="m72.76,158.53c.55,0,.99-.44.99-.99s-.44-.99-.99-.99-.99.44-.99.99.44.99.99.99Z"/><path d="m76.75,158.53c.55,0,.99-.44.99-.99s-.44-.99-.99-.99-.99.44-.99.99.44.99.99.99Z"/><path d="m80.74,158.53c.55,0,.99-.44.99-.99s-.44-.99-.99-.99-.99.44-.99.99.44.99.99.99Z"/><path d="m84.73,158.53c.55,0,.99-.44.99-.99s-.44-.99-.99-.99-.99.44-.99.99.44.99.99.99Z"/><path d="m88.72,158.53c.55,0,.99-.44.99-.99s-.44-.99-.99-.99-.99.44-.99.99.44.99.99.99Z"/><circle cx="92.7" cy="157.54" r=".99" transform="translate(-65.13 249.74) rotate(-89.82)"/><path d="m96.69,158.53c.55,0,.99-.44.99-.99s-.44-.99-.99-.99-.99.44-.99.99.44.99.99.99Z"/><path d="m100.68,158.53c.55,0,.99-.44.99-.99s-.44-.99-.99-.99-.99.44-.99.99.44.99.99.99Z"/><path d="m104.67,158.53c.55,0,.99-.44.99-.99s-.44-.99-.99-.99-.99.44-.99.99.44.99.99.99Z"/><path d="m108.66,158.53c.55,0,.99-.44.99-.99s-.44-.99-.99-.99-.99.44-.99.99.44.99.99.99Z"/><path d="m52.82,162.52c.55,0,.99-.44.99-.99s-.44-.99-.99-.99-.99.44-.99.99.44.99.99.99Z"/><path d="m56.81,162.52c.55,0,.99-.44.99-.99s-.44-.99-.99-.99-.99.44-.99.99.44.99.99.99Z"/><path d="m60.8,162.52c.55,0,.99-.44.99-.99s-.44-.99-.99-.99-.99.44-.99.99.44.99.99.99Z"/><path d="m64.79,162.52c.55,0,.99-.44.99-.99s-.44-.99-.99-.99-.99.44-.99.99.44.99.99.99Z"/><path d="m68.77,162.52c.55,0,.99-.44.99-.99s-.44-.99-.99-.99-.99.44-.99.99.44.99.99.99Z"/><path d="m72.76,162.52c.55,0,.99-.44.99-.99s-.44-.99-.99-.99-.99.44-.99.99.44.99.99.99Z"/><path d="m76.75,162.52c.55,0,.99-.44.99-.99s-.44-.99-.99-.99-.99.44-.99.99.44.99.99.99Z"/><path d="m80.74,162.52c.55,0,.99-.44.99-.99s-.44-.99-.99-.99-.99.44-.99.99.44.99.99.99Z"/><path d="m84.73,162.52c.55,0,.99-.44.99-.99s-.44-.99-.99-.99-.99.44-.99.99.44.99.99.99Z"/><path d="m88.72,162.52c.55,0,.99-.44.99-.99s-.44-.99-.99-.99-.99.44-.99.99.44.99.99.99Z"/><path d="m92.7,162.52c.55,0,.99-.44.99-.99s-.44-.99-.99-.99-.99.44-.99.99.44.99.99.99Z"/><path d="m96.69,162.52c.55,0,.99-.44.99-.99s-.44-.99-.99-.99-.99.44-.99.99.44.99.99.99Z"/><path d="m100.68,162.52c.55,0,.99-.44.99-.99s-.44-.99-.99-.99-.99.44-.99.99.44.99.99.99Z"/><path d="m104.67,162.52c.55,0,.99-.44.99-.99s-.44-.99-.99-.99-.99.44-.99.99.44.99.99.99Z"/><path d="m108.66,162.52c.55,0,.99-.44.99-.99s-.44-.99-.99-.99-.99.44-.99.99.44.99.99.99Z"/><path d="m112.65,162.52c.54,0,.99-.44.99-.99s-.44-.99-.99-.99-.99.44-.99.99.44.99.99.99Z"/><path d="m48.83,166.5c.55,0,.99-.44.99-.99s-.44-.99-.99-.99-.99.44-.99.99.44.99.99.99Z"/><path d="m52.82,166.5c.55,0,.99-.44.99-.99s-.44-.99-.99-.99-.99.44-.99.99.44.99.99.99Z"/><circle cx="56.81" cy="165.52" r=".99"/><circle cx="60.8" cy="165.52" r=".99"/><path d="m64.79,166.5c.55,0,.99-.44.99-.99s-.44-.99-.99-.99-.99.44-.99.99.44.99.99.99Z"/><path d="m68.77,166.5c.55,0,.99-.44.99-.99s-.44-.99-.99-.99-.99.44-.99.99.44.99.99.99Z"/><path d="m72.76,166.5c.55,0,.99-.44.99-.99s-.44-.99-.99-.99-.99.44-.99.99.44.99.99.99Z"/><path d="m76.75,166.5c.55,0,.99-.44.99-.99s-.44-.99-.99-.99-.99.44-.99.99.44.99.99.99Z"/><path d="m80.74,166.5c.55,0,.99-.44.99-.99s-.44-.99-.99-.99-.99.44-.99.99.44.99.99.99Z"/><path d="m84.73,166.5c.55,0,.99-.44.99-.99s-.44-.99-.99-.99-.99.44-.99.99.44.99.99.99Z"/><path d="m88.72,166.5c.55,0,.99-.44.99-.99s-.44-.99-.99-.99-.99.44-.99.99.44.99.99.99Z"/><circle cx="92.7" cy="165.52" r=".99" transform="translate(-73.11 257.69) rotate(-89.82)"/><path d="m96.69,166.5c.55,0,.99-.44.99-.99s-.44-.99-.99-.99-.99.44-.99.99.44.99.99.99Z"/><path d="m100.68,166.5c.55,0,.99-.44.99-.99s-.44-.99-.99-.99-.99.44-.99.99.44.99.99.99Z"/><path d="m104.67,166.5c.55,0,.99-.44.99-.99s-.44-.99-.99-.99-.99.44-.99.99.44.99.99.99Z"/><path d="m108.66,166.5c.55,0,.99-.44.99-.99s-.44-.99-.99-.99-.99.44-.99.99.44.99.99.99Z"/><path d="m112.65,166.5c.54,0,.99-.44.99-.99s-.44-.99-.99-.99-.99.44-.99.99.44.99.99.99Z"/><path d="m116.63,166.5c.54,0,.99-.44.99-.99s-.44-.99-.99-.99-.99.44-.99.99.44.99.99.99Z"/><path d="m48.83,170.49c.55,0,.99-.44.99-.99s-.44-.99-.99-.99-.99.44-.99.99.44.99.99.99Z"/><path d="m52.82,170.49c.55,0,.99-.44.99-.99s-.44-.99-.99-.99-.99.44-.99.99.44.99.99.99Z"/><circle cx="56.81" cy="169.51" r=".99"/><circle cx="60.8" cy="169.51" r=".99"/><path d="m64.79,170.49c.55,0,.99-.44.99-.99s-.44-.99-.99-.99-.99.44-.99.99.44.99.99.99Z"/><path d="m68.77,170.49c.55,0,.99-.44.99-.99s-.44-.99-.99-.99-.99.44-.99.99.44.99.99.99Z"/><path d="m72.76,170.49c.55,0,.99-.44.99-.99s-.44-.99-.99-.99-.99.44-.99.99.44.99.99.99Z"/><path d="m76.75,170.49c.55,0,.99-.44.99-.99s-.44-.99-.99-.99-.99.44-.99.99.44.99.99.99Z"/><path d="m80.74,170.49c.55,0,.99-.44.99-.99s-.44-.99-.99-.99-.99.44-.99.99.44.99.99.99Z"/><path d="m84.73,170.49c.55,0,.99-.44.99-.99s-.44-.99-.99-.99-.99.44-.99.99.44.99.99.99Z"/><path d="m88.72,170.49c.55,0,.99-.44.99-.99s-.44-.99-.99-.99-.99.44-.99.99.44.99.99.99Z"/><circle cx="92.7" cy="169.51" r=".99" transform="translate(-77.1 261.67) rotate(-89.82)"/><path d="m96.69,170.49c.55,0,.99-.44.99-.99s-.44-.99-.99-.99-.99.44-.99.99.44.99.99.99Z"/><path d="m100.68,170.49c.55,0,.99-.44.99-.99s-.44-.99-.99-.99-.99.44-.99.99.44.99.99.99Z"/><path d="m104.67,170.49c.55,0,.99-.44.99-.99s-.44-.99-.99-.99-.99.44-.99.99.44.99.99.99Z"/><path d="m108.66,170.49c.55,0,.99-.44.99-.99s-.44-.99-.99-.99-.99.44-.99.99.44.99.99.99Z"/><path d="m112.65,170.49c.54,0,.99-.44.99-.99s-.44-.99-.99-.99-.99.44-.99.99.44.99.99.99Z"/><path d="m40.86,174.48c.55,0,.99-.44.99-.99s-.44-.99-.99-.99-.99.44-.99.99.44.99.99.99Z"/><path d="m44.85,174.48c.55,0,.99-.44.99-.99s-.44-.99-.99-.99-.99.44-.99.99.44.99.99.99Z"/><path d="m48.83,174.48c.55,0,.99-.44.99-.99s-.44-.99-.99-.99-.99.44-.99.99.44.99.99.99Z"/><path d="m52.82,174.48c.55,0,.99-.44.99-.99s-.44-.99-.99-.99-.99.44-.99.99.44.99.99.99Z"/><path d="m56.81,174.48c.55,0,.99-.44.99-.99s-.44-.99-.99-.99-.99.44-.99.99.44.99.99.99Z"/><path d="m60.8,174.48c.55,0,.99-.44.99-.99s-.44-.99-.99-.99-.99.44-.99.99.44.99.99.99Z"/><path d="m64.79,174.48c.55,0,.99-.44.99-.99s-.44-.99-.99-.99-.99.44-.99.99.44.99.99.99Z"/><path d="m68.77,174.48c.55,0,.99-.44.99-.99s-.44-.99-.99-.99-.99.44-.99.99.44.99.99.99Z"/><path d="m72.76,174.48c.55,0,.99-.44.99-.99s-.44-.99-.99-.99-.99.44-.99.99.44.99.99.99Z"/><path d="m76.75,174.48c.55,0,.99-.44.99-.99s-.44-.99-.99-.99-.99.44-.99.99.44.99.99.99Z"/><path d="m80.74,174.48c.55,0,.99-.44.99-.99s-.44-.99-.99-.99-.99.44-.99.99.44.99.99.99Z"/><path d="m84.73,174.48c.55,0,.99-.44.99-.99s-.44-.99-.99-.99-.99.44-.99.99.44.99.99.99Z"/><path d="m88.72,174.48c.55,0,.99-.44.99-.99s-.44-.99-.99-.99-.99.44-.99.99.44.99.99.99Z"/><path d="m92.7,174.48c.55,0,.99-.44.99-.99s-.44-.99-.99-.99-.99.44-.99.99.44.99.99.99Z"/><path d="m96.69,174.48c.55,0,.99-.44.99-.99s-.44-.99-.99-.99-.99.44-.99.99.44.99.99.99Z"/><path d="m100.68,174.48c.55,0,.99-.44.99-.99s-.44-.99-.99-.99-.99.44-.99.99.44.99.99.99Z"/><path d="m104.67,174.48c.55,0,.99-.44.99-.99s-.44-.99-.99-.99-.99.44-.99.99.44.99.99.99Z"/><path d="m108.66,174.48c.55,0,.99-.44.99-.99s-.44-.99-.99-.99-.99.44-.99.99.44.99.99.99Z"/><path d="m112.65,174.48c.54,0,.99-.44.99-.99s-.44-.99-.99-.99-.99.44-.99.99.44.99.99.99Z"/><path d="m116.63,174.48c.54,0,.99-.44.99-.99s-.44-.99-.99-.99-.99.44-.99.99.44.99.99.99Z"/><path d="m48.83,178.47c.55,0,.99-.44.99-.99s-.44-.99-.99-.99-.99.44-.99.99.44.99.99.99Z"/><path d="m52.82,178.47c.55,0,.99-.44.99-.99s-.44-.99-.99-.99-.99.44-.99.99.44.99.99.99Z"/><path d="m56.81,178.47c.55,0,.99-.44.99-.99s-.44-.99-.99-.99-.99.44-.99.99.44.99.99.99Z"/><path d="m60.8,178.47c.55,0,.99-.44.99-.99s-.44-.99-.99-.99-.99.44-.99.99.44.99.99.99Z"/><path d="m64.79,178.47c.55,0,.99-.44.99-.99s-.44-.99-.99-.99-.99.44-.99.99.44.99.99.99Z"/><path d="m68.77,178.47c.55,0,.99-.44.99-.99s-.44-.99-.99-.99-.99.44-.99.99.44.99.99.99Z"/><path d="m72.76,178.47c.55,0,.99-.44.99-.99s-.44-.99-.99-.99-.99.44-.99.99.44.99.99.99Z"/><path d="m76.75,178.47c.55,0,.99-.44.99-.99s-.44-.99-.99-.99-.99.44-.99.99.44.99.99.99Z"/><path d="m80.74,178.47c.55,0,.99-.44.99-.99s-.44-.99-.99-.99-.99.44-.99.99.44.99.99.99Z"/><path d="m84.73,178.47c.55,0,.99-.44.99-.99s-.44-.99-.99-.99-.99.44-.99.99.44.99.99.99Z"/><path d="m88.72,178.47c.55,0,.99-.44.99-.99s-.44-.99-.99-.99-.99.44-.99.99.44.99.99.99Z"/><path d="m92.7,178.47c.55,0,.99-.44.99-.99s-.44-.99-.99-.99-.99.44-.99.99.44.99.99.99Z"/><path d="m96.69,178.47c.55,0,.99-.44.99-.99s-.44-.99-.99-.99-.99.44-.99.99.44.99.99.99Z"/><path d="m100.68,178.47c.55,0,.99-.44.99-.99s-.44-.99-.99-.99-.99.44-.99.99.44.99.99.99Z"/><path d="m104.67,178.47c.55,0,.99-.44.99-.99s-.44-.99-.99-.99-.99.44-.99.99.44.99.99.99Z"/><path d="m108.66,178.47c.55,0,.99-.44.99-.99s-.44-.99-.99-.99-.99.44-.99.99.44.99.99.99Z"/><path d="m112.65,178.47c.54,0,.99-.44.99-.99s-.44-.99-.99-.99-.99.44-.99.99.44.99.99.99Z"/><path d="m40.86,182.46c.55,0,.99-.44.99-.99s-.44-.99-.99-.99-.99.44-.99.99.44.99.99.99Z"/><path d="m44.85,182.46c.55,0,.99-.44.99-.99s-.44-.99-.99-.99-.99.44-.99.99.44.99.99.99Z"/><path d="m48.83,182.46c.55,0,.99-.44.99-.99s-.44-.99-.99-.99-.99.44-.99.99.44.99.99.99Z"/><path d="m52.82,182.46c.55,0,.99-.44.99-.99s-.44-.99-.99-.99-.99.44-.99.99.44.99.99.99Z"/><path d="m56.81,182.46c.55,0,.99-.44.99-.99s-.44-.99-.99-.99-.99.44-.99.99.44.99.99.99Z"/><path d="m60.8,182.46c.55,0,.99-.44.99-.99s-.44-.99-.99-.99-.99.44-.99.99.44.99.99.99Z"/><path d="m64.79,182.46c.55,0,.99-.44.99-.99s-.44-.99-.99-.99-.99.44-.99.99.44.99.99.99Z"/><path d="m68.77,182.46c.55,0,.99-.44.99-.99s-.44-.99-.99-.99-.99.44-.99.99.44.99.99.99Z"/><path d="m72.76,182.46c.55,0,.99-.44.99-.99s-.44-.99-.99-.99-.99.44-.99.99.44.99.99.99Z"/><path d="m76.75,182.46c.55,0,.99-.44.99-.99s-.44-.99-.99-.99-.99.44-.99.99.44.99.99.99Z"/><path d="m80.74,182.46c.55,0,.99-.44.99-.99s-.44-.99-.99-.99-.99.44-.99.99.44.99.99.99Z"/><path d="m84.73,182.46c.55,0,.99-.44.99-.99s-.44-.99-.99-.99-.99.44-.99.99.44.99.99.99Z"/><path d="m88.72,182.46c.55,0,.99-.44.99-.99s-.44-.99-.99-.99-.99.44-.99.99.44.99.99.99Z"/><path d="m92.7,182.46c.55,0,.99-.44.99-.99s-.44-.99-.99-.99-.99.44-.99.99.44.99.99.99Z"/><path d="m96.69,182.46c.55,0,.99-.44.99-.99s-.44-.99-.99-.99-.99.44-.99.99.44.99.99.99Z"/><path d="m100.68,182.46c.55,0,.99-.44.99-.99s-.44-.99-.99-.99-.99.44-.99.99.44.99.99.99Z"/><path d="m104.67,182.46c.55,0,.99-.44.99-.99s-.44-.99-.99-.99-.99.44-.99.99.44.99.99.99Z"/><path d="m108.66,182.46c.55,0,.99-.44.99-.99s-.44-.99-.99-.99-.99.44-.99.99.44.99.99.99Z"/><path d="m40.86,186.45c.55,0,.99-.44.99-.99s-.44-.99-.99-.99-.99.44-.99.99.44.99.99.99Z"/><path d="m44.85,186.45c.55,0,.99-.44.99-.99s-.44-.99-.99-.99-.99.44-.99.99.44.99.99.99Z"/><path d="m48.83,186.45c.55,0,.99-.44.99-.99s-.44-.99-.99-.99-.99.44-.99.99.44.99.99.99Z"/><path d="m52.82,186.45c.55,0,.99-.44.99-.99s-.44-.99-.99-.99-.99.44-.99.99.44.99.99.99Z"/><path d="m56.81,186.45c.55,0,.99-.44.99-.99s-.44-.99-.99-.99-.99.44-.99.99.44.99.99.99Z"/><path d="m60.8,186.45c.55,0,.99-.44.99-.99s-.44-.99-.99-.99-.99.44-.99.99.44.99.99.99Z"/><path d="m64.79,186.45c.55,0,.99-.44.99-.99s-.44-.99-.99-.99-.99.44-.99.99.44.99.99.99Z"/><path d="m68.77,186.45c.55,0,.99-.44.99-.99s-.44-.99-.99-.99-.99.44-.99.99.44.99.99.99Z"/><path d="m72.76,186.45c.55,0,.99-.44.99-.99s-.44-.99-.99-.99-.99.44-.99.99.44.99.99.99Z"/><path d="m76.75,186.45c.55,0,.99-.44.99-.99s-.44-.99-.99-.99-.99.44-.99.99.44.99.99.99Z"/><path d="m80.74,186.45c.55,0,.99-.44.99-.99s-.44-.99-.99-.99-.99.44-.99.99.44.99.99.99Z"/><path d="m84.73,186.45c.55,0,.99-.44.99-.99s-.44-.99-.99-.99-.99.44-.99.99.44.99.99.99Z"/><path d="m88.72,186.45c.55,0,.99-.44.99-.99s-.44-.99-.99-.99-.99.44-.99.99.44.99.99.99Z"/><path d="m92.7,186.45c.55,0,.99-.44.99-.99s-.44-.99-.99-.99-.99.44-.99.99.44.99.99.99Z"/><path d="m96.69,186.45c.55,0,.99-.44.99-.99s-.44-.99-.99-.99-.99.44-.99.99.44.99.99.99Z"/><path d="m100.68,186.45c.55,0,.99-.44.99-.99s-.44-.99-.99-.99-.99.44-.99.99.44.99.99.99Z"/><path d="m40.86,190.43c.55,0,.99-.44.99-.99s-.44-.99-.99-.99-.99.44-.99.99.44.99.99.99Z"/><path d="m44.85,190.43c.55,0,.99-.44.99-.99s-.44-.99-.99-.99-.99.44-.99.99.44.99.99.99Z"/><path d="m48.83,190.43c.55,0,.99-.44.99-.99s-.44-.99-.99-.99-.99.44-.99.99.44.99.99.99Z"/><path d="m52.82,190.43c.55,0,.99-.44.99-.99s-.44-.99-.99-.99-.99.44-.99.99.44.99.99.99Z"/><path d="m56.81,190.43c.55,0,.99-.44.99-.99s-.44-.99-.99-.99-.99.44-.99.99.44.99.99.99Z"/><path d="m60.8,190.43c.55,0,.99-.44.99-.99s-.44-.99-.99-.99-.99.44-.99.99.44.99.99.99Z"/><path d="m64.79,190.43c.55,0,.99-.44.99-.99s-.44-.99-.99-.99-.99.44-.99.99.44.99.99.99Z"/><path d="m68.77,190.43c.55,0,.99-.44.99-.99s-.44-.99-.99-.99-.99.44-.99.99.44.99.99.99Z"/><path d="m72.76,190.43c.55,0,.99-.44.99-.99s-.44-.99-.99-.99-.99.44-.99.99.44.99.99.99Z"/><path d="m76.75,190.43c.55,0,.99-.44.99-.99s-.44-.99-.99-.99-.99.44-.99.99.44.99.99.99Z"/><path d="m80.74,190.43c.55,0,.99-.44.99-.99s-.44-.99-.99-.99-.99.44-.99.99.44.99.99.99Z"/><path d="m84.73,190.43c.55,0,.99-.44.99-.99s-.44-.99-.99-.99-.99.44-.99.99.44.99.99.99Z"/><path d="m88.72,190.43c.55,0,.99-.44.99-.99s-.44-.99-.99-.99-.99.44-.99.99.44.99.99.99Z"/><path d="m92.7,190.43c.55,0,.99-.44.99-.99s-.44-.99-.99-.99-.99.44-.99.99.44.99.99.99Z"/><path d="m96.69,190.43c.55,0,.99-.44.99-.99s-.44-.99-.99-.99-.99.44-.99.99.44.99.99.99Z"/><path d="m100.68,190.43c.55,0,.99-.44.99-.99s-.44-.99-.99-.99-.99.44-.99.99.44.99.99.99Z"/><path d="m120.62,190.43c.54,0,.99-.44.99-.99s-.44-.99-.99-.99-.99.44-.99.99.44.99.99.99Z"/><path d="m40.86,194.42c.55,0,.99-.44.99-.99s-.44-.99-.99-.99-.99.44-.99.99.44.99.99.99Z"/><path d="m44.85,194.42c.55,0,.99-.44.99-.99s-.44-.99-.99-.99-.99.44-.99.99.44.99.99.99Z"/><path d="m48.83,194.42c.55,0,.99-.44.99-.99s-.44-.99-.99-.99-.99.44-.99.99.44.99.99.99Z"/><path d="m52.82,194.42c.55,0,.99-.44.99-.99s-.44-.99-.99-.99-.99.44-.99.99.44.99.99.99Z"/><path d="m56.81,194.42c.55,0,.99-.44.99-.99s-.44-.99-.99-.99-.99.44-.99.99.44.99.99.99Z"/><path d="m60.8,194.42c.55,0,.99-.44.99-.99s-.44-.99-.99-.99-.99.44-.99.99.44.99.99.99Z"/><path d="m64.79,194.42c.55,0,.99-.44.99-.99s-.44-.99-.99-.99-.99.44-.99.99.44.99.99.99Z"/><path d="m68.77,194.42c.55,0,.99-.44.99-.99s-.44-.99-.99-.99-.99.44-.99.99.44.99.99.99Z"/><path d="m72.76,194.42c.55,0,.99-.44.99-.99s-.44-.99-.99-.99-.99.44-.99.99.44.99.99.99Z"/><path d="m76.75,194.42c.55,0,.99-.44.99-.99s-.44-.99-.99-.99-.99.44-.99.99.44.99.99.99Z"/><path d="m80.74,194.42c.55,0,.99-.44.99-.99s-.44-.99-.99-.99-.99.44-.99.99.44.99.99.99Z"/><path d="m84.73,194.42c.55,0,.99-.44.99-.99s-.44-.99-.99-.99-.99.44-.99.99.44.99.99.99Z"/><path d="m88.72,194.42c.55,0,.99-.44.99-.99s-.44-.99-.99-.99-.99.44-.99.99.44.99.99.99Z"/><path d="m92.7,194.42c.55,0,.99-.44.99-.99s-.44-.99-.99-.99-.99.44-.99.99.44.99.99.99Z"/><path d="m96.69,194.42c.55,0,.99-.44.99-.99s-.44-.99-.99-.99-.99.44-.99.99.44.99.99.99Z"/><path d="m40.86,198.41c.55,0,.99-.44.99-.99s-.44-.99-.99-.99-.99.44-.99.99.44.99.99.99Z"/><path d="m44.85,198.41c.55,0,.99-.44.99-.99s-.44-.99-.99-.99-.99.44-.99.99.44.99.99.99Z"/><path d="m48.83,198.41c.55,0,.99-.44.99-.99s-.44-.99-.99-.99-.99.44-.99.99.44.99.99.99Z"/><path d="m52.82,198.41c.55,0,.99-.44.99-.99s-.44-.99-.99-.99-.99.44-.99.99.44.99.99.99Z"/><path d="m56.81,198.41c.55,0,.99-.44.99-.99s-.44-.99-.99-.99-.99.44-.99.99.44.99.99.99Z"/><path d="m60.8,198.41c.55,0,.99-.44.99-.99s-.44-.99-.99-.99-.99.44-.99.99.44.99.99.99Z"/><path d="m64.79,198.41c.55,0,.99-.44.99-.99s-.44-.99-.99-.99-.99.44-.99.99.44.99.99.99Z"/><path d="m68.77,198.41c.55,0,.99-.44.99-.99s-.44-.99-.99-.99-.99.44-.99.99.44.99.99.99Z"/><path d="m72.76,198.41c.55,0,.99-.44.99-.99s-.44-.99-.99-.99-.99.44-.99.99.44.99.99.99Z"/><path d="m76.75,198.41c.55,0,.99-.44.99-.99s-.44-.99-.99-.99-.99.44-.99.99.44.99.99.99Z"/><path d="m80.74,198.41c.55,0,.99-.44.99-.99s-.44-.99-.99-.99-.99.44-.99.99.44.99.99.99Z"/><path d="m84.73,198.41c.55,0,.99-.44.99-.99s-.44-.99-.99-.99-.99.44-.99.99.44.99.99.99Z"/><path d="m88.72,198.41c.55,0,.99-.44.99-.99s-.44-.99-.99-.99-.99.44-.99.99.44.99.99.99Z"/><path d="m92.7,198.41c.55,0,.99-.44.99-.99s-.44-.99-.99-.99-.99.44-.99.99.44.99.99.99Z"/><path d="m96.69,198.41c.55,0,.99-.44.99-.99s-.44-.99-.99-.99-.99.44-.99.99.44.99.99.99Z"/><path d="m100.68,198.41c.55,0,.99-.44.99-.99s-.44-.99-.99-.99-.99.44-.99.99.44.99.99.99Z"/><path d="m116.63,198.41c.54,0,.99-.44.99-.99s-.44-.99-.99-.99-.99.44-.99.99.44.99.99.99Z"/><path d="m120.62,198.41c.54,0,.99-.44.99-.99s-.44-.99-.99-.99-.99.44-.99.99.44.99.99.99Z"/><path d="m124.61,198.41c.55,0,.99-.44.99-.99s-.44-.99-.99-.99-.99.44-.99.99.44.99.99.99Z"/><path d="m48.83,202.4c.55,0,.99-.44.99-.99s-.44-.99-.99-.99-.99.44-.99.99.44.99.99.99Z"/><path d="m52.82,202.4c.55,0,.99-.44.99-.99s-.44-.99-.99-.99-.99.44-.99.99.44.99.99.99Z"/><path d="m56.81,202.4c.55,0,.99-.44.99-.99s-.44-.99-.99-.99-.99.44-.99.99.44.99.99.99Z"/><path d="m60.8,202.4c.55,0,.99-.44.99-.99s-.44-.99-.99-.99-.99.44-.99.99.44.99.99.99Z"/><path d="m64.79,202.4c.55,0,.99-.44.99-.99s-.44-.99-.99-.99-.99.44-.99.99.44.99.99.99Z"/><path d="m68.77,202.4c.55,0,.99-.44.99-.99s-.44-.99-.99-.99-.99.44-.99.99.44.99.99.99Z"/><path d="m72.76,202.4c.55,0,.99-.44.99-.99s-.44-.99-.99-.99-.99.44-.99.99.44.99.99.99Z"/><path d="m76.75,202.4c.55,0,.99-.44.99-.99s-.44-.99-.99-.99-.99.44-.99.99.44.99.99.99Z"/><path d="m80.74,202.4c.55,0,.99-.44.99-.99s-.44-.99-.99-.99-.99.44-.99.99.44.99.99.99Z"/><path d="m84.73,202.4c.55,0,.99-.44.99-.99s-.44-.99-.99-.99-.99.44-.99.99.44.99.99.99Z"/><path d="m88.72,202.4c.55,0,.99-.44.99-.99s-.44-.99-.99-.99-.99.44-.99.99.44.99.99.99Z"/><path d="m92.7,202.4c.55,0,.99-.44.99-.99s-.44-.99-.99-.99-.99.44-.99.99.44.99.99.99Z"/><path d="m96.69,202.4c.55,0,.99-.44.99-.99s-.44-.99-.99-.99-.99.44-.99.99.44.99.99.99Z"/><path d="m112.65,202.4c.54,0,.99-.44.99-.99s-.44-.99-.99-.99-.99.44-.99.99.44.99.99.99Z"/><path d="m116.63,202.4c.54,0,.99-.44.99-.99s-.44-.99-.99-.99-.99.44-.99.99.44.99.99.99Z"/><path d="m120.62,202.4c.54,0,.99-.44.99-.99s-.44-.99-.99-.99-.99.44-.99.99.44.99.99.99Z"/><path d="m48.83,206.39c.55,0,.99-.44.99-.99s-.44-.99-.99-.99-.99.44-.99.99.44.99.99.99Z"/><path d="m52.82,206.39c.55,0,.99-.44.99-.99s-.44-.99-.99-.99-.99.44-.99.99.44.99.99.99Z"/><path d="m56.81,206.39c.55,0,.99-.44.99-.99s-.44-.99-.99-.99-.99.44-.99.99.44.99.99.99Z"/><path d="m60.8,206.39c.55,0,.99-.44.99-.99s-.44-.99-.99-.99-.99.44-.99.99.44.99.99.99Z"/><path d="m64.79,206.39c.55,0,.99-.44.99-.99s-.44-.99-.99-.99-.99.44-.99.99.44.99.99.99Z"/><path d="m68.77,206.39c.55,0,.99-.44.99-.99s-.44-.99-.99-.99-.99.44-.99.99.44.99.99.99Z"/><path d="m72.76,206.39c.55,0,.99-.44.99-.99s-.44-.99-.99-.99-.99.44-.99.99.44.99.99.99Z"/><path d="m76.75,206.39c.55,0,.99-.44.99-.99s-.44-.99-.99-.99-.99.44-.99.99.44.99.99.99Z"/><path d="m80.74,206.39c.55,0,.99-.44.99-.99s-.44-.99-.99-.99-.99.44-.99.99.44.99.99.99Z"/><path d="m84.73,206.39c.55,0,.99-.44.99-.99s-.44-.99-.99-.99-.99.44-.99.99.44.99.99.99Z"/><path d="m88.72,206.39c.55,0,.99-.44.99-.99s-.44-.99-.99-.99-.99.44-.99.99.44.99.99.99Z"/><path d="m92.7,206.39c.55,0,.99-.44.99-.99s-.44-.99-.99-.99-.99.44-.99.99.44.99.99.99Z"/><path d="m96.69,206.39c.55,0,.99-.44.99-.99s-.44-.99-.99-.99-.99.44-.99.99.44.99.99.99Z"/><path d="m112.65,206.39c.54,0,.99-.44.99-.99s-.44-.99-.99-.99-.99.44-.99.99.44.99.99.99Z"/><path d="m116.63,206.39c.54,0,.99-.44.99-.99s-.44-.99-.99-.99-.99.44-.99.99.44.99.99.99Z"/><path d="m120.62,206.39c.54,0,.99-.44.99-.99s-.44-.99-.99-.99-.99.44-.99.99.44.99.99.99Z"/><path d="m52.82,210.37c.55,0,.99-.44.99-.99s-.44-.99-.99-.99-.99.44-.99.99.44.99.99.99Z"/><path d="m56.81,210.37c.55,0,.99-.44.99-.99s-.44-.99-.99-.99-.99.44-.99.99.44.99.99.99Z"/><path d="m60.8,210.37c.55,0,.99-.44.99-.99s-.44-.99-.99-.99-.99.44-.99.99.44.99.99.99Z"/><path d="m64.79,210.37c.55,0,.99-.44.99-.99s-.44-.99-.99-.99-.99.44-.99.99.44.99.99.99Z"/><path d="m68.77,210.37c.55,0,.99-.44.99-.99s-.44-.99-.99-.99-.99.44-.99.99.44.99.99.99Z"/><path d="m72.76,210.37c.55,0,.99-.44.99-.99s-.44-.99-.99-.99-.99.44-.99.99.44.99.99.99Z"/><path d="m76.75,210.37c.55,0,.99-.44.99-.99s-.44-.99-.99-.99-.99.44-.99.99.44.99.99.99Z"/><path d="m80.74,210.37c.55,0,.99-.44.99-.99s-.44-.99-.99-.99-.99.44-.99.99.44.99.99.99Z"/><path d="m84.73,210.37c.55,0,.99-.44.99-.99s-.44-.99-.99-.99-.99.44-.99.99.44.99.99.99Z"/><path d="m88.72,210.37c.55,0,.99-.44.99-.99s-.44-.99-.99-.99-.99.44-.99.99.44.99.99.99Z"/><path d="m92.7,210.37c.55,0,.99-.44.99-.99s-.44-.99-.99-.99-.99.44-.99.99.44.99.99.99Z"/><path d="m96.69,210.37c.55,0,.99-.44.99-.99s-.44-.99-.99-.99-.99.44-.99.99.44.99.99.99Z"/><path d="m100.68,210.37c.55,0,.99-.44.99-.99s-.44-.99-.99-.99-.99.44-.99.99.44.99.99.99Z"/><path d="m112.65,210.37c.54,0,.99-.44.99-.99s-.44-.99-.99-.99-.99.44-.99.99.44.99.99.99Z"/><path d="m116.63,210.37c.54,0,.99-.44.99-.99s-.44-.99-.99-.99-.99.44-.99.99.44.99.99.99Z"/><path d="m52.82,214.36c.55,0,.99-.44.99-.99s-.44-.99-.99-.99-.99.44-.99.99.44.99.99.99Z"/><circle cx="56.81" cy="213.38" r=".99"/><circle cx="60.8" cy="213.38" r=".99"/><path d="m64.79,214.36c.55,0,.99-.44.99-.99s-.44-.99-.99-.99-.99.44-.99.99.44.99.99.99Z"/><path d="m68.77,214.36c.55,0,.99-.44.99-.99s-.44-.99-.99-.99-.99.44-.99.99.44.99.99.99Z"/><path d="m72.76,214.36c.55,0,.99-.44.99-.99s-.44-.99-.99-.99-.99.44-.99.99.44.99.99.99Z"/><path d="m76.75,214.36c.55,0,.99-.44.99-.99s-.44-.99-.99-.99-.99.44-.99.99.44.99.99.99Z"/><path d="m80.74,214.36c.55,0,.99-.44.99-.99s-.44-.99-.99-.99-.99.44-.99.99.44.99.99.99Z"/><path d="m84.73,214.36c.55,0,.99-.44.99-.99s-.44-.99-.99-.99-.99.44-.99.99.44.99.99.99Z"/><path d="m88.72,214.36c.55,0,.99-.44.99-.99s-.44-.99-.99-.99-.99.44-.99.99.44.99.99.99Z"/><circle cx="92.7" cy="213.38" r=".99" transform="translate(-120.97 305.39) rotate(-89.82)"/><path d="m96.69,214.36c.55,0,.99-.44.99-.99s-.44-.99-.99-.99-.99.44-.99.99.44.99.99.99Z"/><path d="m100.68,214.36c.55,0,.99-.44.99-.99s-.44-.99-.99-.99-.99.44-.99.99.44.99.99.99Z"/><path d="m112.65,214.36c.54,0,.99-.44.99-.99s-.44-.99-.99-.99-.99.44-.99.99.44.99.99.99Z"/><path d="m116.63,214.36c.54,0,.99-.44.99-.99s-.44-.99-.99-.99-.99.44-.99.99.44.99.99.99Z"/><path d="m56.81,218.35c.55,0,.99-.44.99-.99s-.44-.99-.99-.99-.99.44-.99.99.44.99.99.99Z"/><path d="m60.8,218.35c.55,0,.99-.44.99-.99s-.44-.99-.99-.99-.99.44-.99.99.44.99.99.99Z"/><path d="m64.79,218.35c.55,0,.99-.44.99-.99s-.44-.99-.99-.99-.99.44-.99.99.44.99.99.99Z"/><path d="m68.77,218.35c.55,0,.99-.44.99-.99s-.44-.99-.99-.99-.99.44-.99.99.44.99.99.99Z"/><path d="m72.76,218.35c.55,0,.99-.44.99-.99s-.44-.99-.99-.99-.99.44-.99.99.44.99.99.99Z"/><path d="m76.75,218.35c.55,0,.99-.44.99-.99s-.44-.99-.99-.99-.99.44-.99.99.44.99.99.99Z"/><path d="m80.74,218.35c.55,0,.99-.44.99-.99s-.44-.99-.99-.99-.99.44-.99.99.44.99.99.99Z"/><path d="m84.73,218.35c.55,0,.99-.44.99-.99s-.44-.99-.99-.99-.99.44-.99.99.44.99.99.99Z"/><path d="m88.72,218.35c.55,0,.99-.44.99-.99s-.44-.99-.99-.99-.99.44-.99.99.44.99.99.99Z"/><path d="m92.7,218.35c.55,0,.99-.44.99-.99s-.44-.99-.99-.99-.99.44-.99.99.44.99.99.99Z"/><path d="m96.69,218.35c.55,0,.99-.44.99-.99s-.44-.99-.99-.99-.99.44-.99.99.44.99.99.99Z"/><path d="m100.68,218.35c.55,0,.99-.44.99-.99s-.44-.99-.99-.99-.99.44-.99.99.44.99.99.99Z"/><circle cx="56.81" cy="221.35" r=".99"/><circle cx="60.8" cy="221.35" r=".99"/><path d="m64.79,222.34c.55,0,.99-.44.99-.99s-.44-.99-.99-.99-.99.44-.99.99.44.99.99.99Z"/><path d="m68.77,222.34c.55,0,.99-.44.99-.99s-.44-.99-.99-.99-.99.44-.99.99.44.99.99.99Z"/><path d="m72.76,222.34c.55,0,.99-.44.99-.99s-.44-.99-.99-.99-.99.44-.99.99.44.99.99.99Z"/><path d="m76.75,222.34c.55,0,.99-.44.99-.99s-.44-.99-.99-.99-.99.44-.99.99.44.99.99.99Z"/><path d="m80.74,222.34c.55,0,.99-.44.99-.99s-.44-.99-.99-.99-.99.44-.99.99.44.99.99.99Z"/><path d="m84.73,222.34c.55,0,.99-.44.99-.99s-.44-.99-.99-.99-.99.44-.99.99.44.99.99.99Z"/><path d="m88.72,222.34c.55,0,.99-.44.99-.99s-.44-.99-.99-.99-.99.44-.99.99.44.99.99.99Z"/><circle cx="92.7" cy="221.35" r=".99" transform="translate(-128.94 313.35) rotate(-89.82)"/><path d="m96.69,222.34c.55,0,.99-.44.99-.99s-.44-.99-.99-.99-.99.44-.99.99.44.99.99.99Z"/><path d="m100.68,222.34c.55,0,.99-.44.99-.99s-.44-.99-.99-.99-.99.44-.99.99.44.99.99.99Z"/><circle cx="56.81" cy="225.34" r=".99"/><circle cx="60.8" cy="225.34" r=".99"/><path d="m64.79,226.33c.55,0,.99-.44.99-.99s-.44-.99-.99-.99-.99.44-.99.99.44.99.99.99Z"/><path d="m68.77,226.33c.55,0,.99-.44.99-.99s-.44-.99-.99-.99-.99.44-.99.99.44.99.99.99Z"/><path d="m72.76,226.33c.55,0,.99-.44.99-.99s-.44-.99-.99-.99-.99.44-.99.99.44.99.99.99Z"/><path d="m76.75,226.33c.55,0,.99-.44.99-.99s-.44-.99-.99-.99-.99.44-.99.99.44.99.99.99Z"/><path d="m80.74,226.33c.55,0,.99-.44.99-.99s-.44-.99-.99-.99-.99.44-.99.99.44.99.99.99Z"/><path d="m84.73,226.33c.55,0,.99-.44.99-.99s-.44-.99-.99-.99-.99.44-.99.99.44.99.99.99Z"/><path d="m88.72,226.33c.55,0,.99-.44.99-.99s-.44-.99-.99-.99-.99.44-.99.99.44.99.99.99Z"/><circle cx="92.7" cy="225.34" r=".99" transform="translate(-132.93 317.32) rotate(-89.82)"/><path d="m96.69,226.33c.55,0,.99-.44.99-.99s-.44-.99-.99-.99-.99.44-.99.99.44.99.99.99Z"/><path d="m60.8,230.32c.55,0,.99-.44.99-.99s-.44-.99-.99-.99-.99.44-.99.99.44.99.99.99Z"/><path d="m64.79,230.32c.55,0,.99-.44.99-.99s-.44-.99-.99-.99-.99.44-.99.99.44.99.99.99Z"/><path d="m68.77,230.32c.55,0,.99-.44.99-.99s-.44-.99-.99-.99-.99.44-.99.99.44.99.99.99Z"/><path d="m72.76,230.32c.55,0,.99-.44.99-.99s-.44-.99-.99-.99-.99.44-.99.99.44.99.99.99Z"/><path d="m76.75,230.32c.55,0,.99-.44.99-.99s-.44-.99-.99-.99-.99.44-.99.99.44.99.99.99Z"/><path d="m60.8,234.3c.55,0,.99-.44.99-.99s-.44-.99-.99-.99-.99.44-.99.99.44.99.99.99Z"/><path d="m64.79,234.3c.55,0,.99-.44.99-.99s-.44-.99-.99-.99-.99.44-.99.99.44.99.99.99Z"/><path d="m68.77,234.3c.55,0,.99-.44.99-.99s-.44-.99-.99-.99-.99.44-.99.99.44.99.99.99Z"/><path d="m72.76,234.3c.55,0,.99-.44.99-.99s-.44-.99-.99-.99-.99.44-.99.99.44.99.99.99Z"/><path d="m76.75,234.3c.55,0,.99-.44.99-.99s-.44-.99-.99-.99-.99.44-.99.99.44.99.99.99Z"/><path d="m183.72,171.81c0-.5-.18-.88-.53-1.15-.35-.27-.98-.55-1.9-.85s-1.64-.59-2.17-.88c-1.45-.78-2.18-1.84-2.18-3.18,0-.69.2-1.31.59-1.85s.95-.97,1.68-1.27c.73-.3,1.55-.46,2.46-.46s1.73.16,2.44.5c.72.33,1.27.8,1.67,1.4.4.6.59,1.29.59,2.06h-2.64c0-.59-.18-1.04-.55-1.37s-.89-.49-1.56-.49-1.15.14-1.5.41c-.36.27-.54.63-.54,1.08,0,.42.21.77.63,1.05s1.04.55,1.85.79c1.5.45,2.59,1.01,3.28,1.68s1.03,1.5,1.03,2.5c0,1.11-.42,1.98-1.26,2.61-.84.63-1.97.94-3.39.94-.99,0-1.88-.18-2.69-.54s-1.43-.86-1.85-1.48c-.43-.63-.64-1.35-.64-2.18h2.65c0,1.41.84,2.12,2.53,2.12.63,0,1.12-.13,1.47-.38s.53-.61.53-1.07Z"/><path d="m192.88,172l2.9-9.63h2.94l-4.46,12.8h-2.75l-4.44-12.8h2.93l2.88,9.63Z"/><path d="m207.63,169.62h-5.07v3.43h5.95v2.12h-8.58v-12.8h8.57v2.14h-5.93v3.05h5.07v2.07Z"/><path d="m220.47,175.17h-2.64l-5.14-8.43v8.43h-2.64v-12.8h2.64l5.14,8.44v-8.44h2.63v12.8Z"/><path d="m229.41,171.81c0-.5-.18-.88-.53-1.15-.35-.27-.98-.55-1.9-.85s-1.64-.59-2.17-.88c-1.45-.78-2.18-1.84-2.18-3.18,0-.69.2-1.31.59-1.85s.95-.97,1.68-1.27c.73-.3,1.55-.46,2.46-.46s1.73.16,2.44.5c.72.33,1.27.8,1.67,1.4.4.6.59,1.29.59,2.06h-2.64c0-.59-.18-1.04-.55-1.37s-.89-.49-1.56-.49-1.15.14-1.5.41c-.36.27-.54.63-.54,1.08,0,.42.21.77.63,1.05s1.04.55,1.85.79c1.5.45,2.59,1.01,3.28,1.68s1.03,1.5,1.03,2.5c0,1.11-.42,1.98-1.26,2.61-.84.63-1.97.94-3.39.94-.99,0-1.88-.18-2.69-.54s-1.43-.86-1.85-1.48c-.43-.63-.64-1.35-.64-2.18h2.65c0,1.41.84,2.12,2.53,2.12.63,0,1.12-.13,1.47-.38s.53-.61.53-1.07Z"/><path d="m237.85,170.04l-1.37,1.48v3.66h-2.64v-12.8h2.64v5.8l1.16-1.59,3.26-4.21h3.24l-4.55,5.69,4.68,7.11h-3.14l-3.29-5.14Z"/><path d="m252.98,169.62h-5.07v3.43h5.95v2.12h-8.58v-12.8h8.57v2.14h-5.93v3.05h5.07v2.07Z"/><path d="m265.82,175.17h-2.64l-5.14-8.43v8.43h-2.64v-12.8h2.64l5.14,8.44v-8.44h2.63v12.8Z"/><path d="m274.77,171.81c0-.5-.18-.88-.53-1.15-.35-.27-.98-.55-1.9-.85s-1.64-.59-2.17-.88c-1.45-.78-2.18-1.84-2.18-3.18,0-.69.2-1.31.59-1.85s.95-.97,1.68-1.27c.73-.3,1.55-.46,2.46-.46s1.73.16,2.44.5c.72.33,1.27.8,1.67,1.4.4.6.59,1.29.59,2.06h-2.64c0-.59-.18-1.04-.55-1.37s-.89-.49-1.56-.49-1.15.14-1.5.41c-.36.27-.54.63-.54,1.08,0,.42.21.77.63,1.05s1.04.55,1.85.79c1.5.45,2.59,1.01,3.28,1.68s1.03,1.5,1.03,2.5c0,1.11-.42,1.98-1.26,2.61-.84.63-1.97.94-3.39.94-.99,0-1.88-.18-2.69-.54s-1.43-.86-1.85-1.48c-.43-.63-.64-1.35-.64-2.18h2.65c0,1.41.84,2.12,2.53,2.12.63,0,1.12-.13,1.47-.38s.53-.61.53-1.07Z"/><path d="m184.78,191.55h-5.07v5.23h-2.64v-12.8h8.34v2.14h-5.7v3.31h5.07v2.13Z"/><path d="m197.46,190.67c0,1.26-.22,2.37-.67,3.31s-1.08,1.68-1.91,2.2c-.83.52-1.78.77-2.85.77s-2.01-.25-2.84-.76c-.83-.51-1.48-1.24-1.93-2.19-.46-.95-.69-2.04-.69-3.27v-.63c0-1.26.23-2.37.68-3.33.45-.96,1.1-1.69,1.93-2.21.83-.51,1.78-.77,2.84-.77s2.02.26,2.85.77c.83.51,1.47,1.25,1.93,2.21.45.96.68,2.07.68,3.32v.57Zm-6.38-8.62c0,.31-.11.58-.34.79-.23.22-.52.32-.88.32s-.66-.11-.88-.33c-.22-.22-.33-.48-.33-.79s.11-.57.33-.79c.22-.22.52-.33.88-.33s.66.11.88.33c.23.22.34.48.34.79Zm3.7,8.04c0-1.34-.24-2.36-.72-3.06-.48-.7-1.17-1.05-2.06-1.05s-1.57.34-2.05,1.03c-.48.69-.72,1.7-.73,3.03v.63c0,1.31.24,2.32.72,3.04s1.17,1.08,2.08,1.08,1.57-.35,2.04-1.04.72-1.71.72-3.04v-.63Zm-1.86-8.04c0-.32.12-.58.36-.8.24-.21.53-.32.87-.32s.63.11.87.33.35.48.35.79-.11.57-.33.79c-.22.22-.52.33-.88.33s-.66-.11-.88-.33c-.23-.22-.34-.48-.34-.79Z"/><path d="m204.12,192.1h-2.1v4.69h-2.64v-12.8h4.76c1.51,0,2.68.34,3.5,1.01.82.68,1.23,1.63,1.23,2.86,0,.87-.19,1.6-.57,2.19s-.95,1.05-1.72,1.39l2.77,5.23v.12h-2.83l-2.4-4.69Zm-2.1-2.14h2.13c.66,0,1.18-.17,1.54-.51.36-.34.55-.8.55-1.39s-.17-1.08-.51-1.42c-.34-.34-.87-.52-1.58-.52h-2.12v3.84Z"/><path d="m210.87,196.79v-12.8h3.94c1.13,0,2.13.25,3.02.76.89.51,1.58,1.23,2.08,2.16s.75,2,.75,3.19v.59c0,1.19-.24,2.25-.73,3.17-.49.93-1.18,1.65-2.07,2.16-.89.51-1.9.77-3.02.77h-3.97Zm2.64-10.67v8.55h1.28c1.03,0,1.82-.34,2.37-1.01s.82-1.64.84-2.89v-.68c0-1.3-.27-2.29-.81-2.96-.54-.67-1.33-1.01-2.37-1.01h-1.3Z"/><path d="m230.28,191.24h-5.07v3.43h5.95v2.12h-8.58v-12.8h8.57v2.14h-5.93v3.05h5.07v2.07Z"/><path d="m235.35,194.67h5.6v2.12h-8.24v-12.8h2.64v10.68Z"/><path d="m252.88,196.79h-2.64l-5.14-8.43v8.43h-2.64v-12.8h2.64l5.14,8.44v-8.44h2.63v12.8Z"/><path d="m257.99,196.79h-2.64v-12.8h2.64v12.8Z"/><path d="m270.84,196.79h-2.64l-5.14-8.43v8.43h-2.64v-12.8h2.64l5.14,8.44v-8.44h2.63v12.8Z"/><path d="m283.28,195.17c-.48.57-1.15,1.01-2.01,1.32-.87.31-1.83.47-2.88.47-1.11,0-2.08-.24-2.92-.72s-1.48-1.19-1.93-2.11c-.45-.92-.69-2-.7-3.25v-.87c0-1.28.22-2.38.65-3.32.43-.94,1.05-1.65,1.87-2.15.81-.5,1.76-.74,2.85-.74,1.52,0,2.71.36,3.56,1.09.86.72,1.36,1.78,1.52,3.16h-2.57c-.12-.73-.38-1.27-.78-1.61s-.95-.51-1.66-.51c-.9,0-1.58.34-2.05,1.01-.47.68-.71,1.68-.71,3.01v.82c0,1.34.25,2.36.76,3.04s1.26,1.03,2.24,1.03,1.7-.21,2.12-.63v-2.21h-2.4v-1.94h5.04v5.11Z"/><path d="m176.68,211.8h1.01v.88c.28-.34.59-.59.93-.76.35-.17.71-.26,1.08-.26.71,0,1.17.37,1.36,1.11.29-.37.61-.64.97-.83.36-.19.74-.28,1.13-.28.43,0,.77.15,1.05.46s.41.81.41,1.5v6.77h-1.01v-6.74c0-.46-.07-.79-.22-.97-.15-.18-.36-.28-.64-.28-.26,0-.53.08-.82.24-.29.16-.55.37-.8.65.02.14.03.25.03.33v6.77h-1.02v-6.74c0-.47-.07-.8-.22-.98-.15-.18-.36-.27-.64-.27-.26,0-.53.08-.8.24-.28.16-.54.37-.8.64v7.11h-1.01v-8.57Z"/><path d="m187.05,220.18c-.34-.22-.58-.57-.74-1.05s-.24-1.14-.24-1.97v-2.17c0-.84.08-1.5.24-1.98.16-.48.42-.82.76-1.03.34-.21.78-.31,1.33-.31.59,0,1.05.13,1.37.38.32.25.54.63.67,1.13s.19,1.18.19,2.03v.77h-3.47v1.5c0,.82.09,1.39.28,1.72.19.33.5.49.95.49.38,0,.67-.12.87-.36.2-.24.3-.67.3-1.29v-.59h1.05v.47c0,.83-.17,1.47-.52,1.91-.35.45-.91.67-1.71.67-.55,0-1-.11-1.33-.33Zm2.51-4.82v-.71c0-.51-.03-.92-.08-1.22-.05-.3-.17-.53-.33-.7-.17-.17-.42-.25-.76-.25-.31,0-.55.07-.73.2s-.31.37-.39.7c-.08.33-.12.8-.12,1.4v.58h2.4Z"/><path d="m192.24,208.36h1.08v12.02h-1.08v-12.02Z"/><path d="m195.24,208.36h1.08v12.02h-1.08v-12.02Z"/><path d="m198.32,219.96c-.32-.37-.47-.82-.47-1.36s.11-1.03.33-1.39.57-.69,1.03-.98c.46-.29,1.16-.64,2.09-1.05v-.61c0-.54-.03-.95-.1-1.25-.06-.3-.17-.51-.33-.64-.15-.13-.37-.19-.65-.19-.8,0-1.2.49-1.2,1.47v.3h-1.07c0-.89.2-1.54.56-1.96s.95-.62,1.77-.62c.75,0,1.29.23,1.61.68.32.46.48,1.17.48,2.15v4.17c0,.28,0,.59.02.95s.03.61.05.76h-.96l-.16-1.19c-.13.37-.35.69-.66.94-.31.25-.68.38-1.11.38-.51,0-.93-.18-1.25-.55Zm2.4-.68c.24-.2.44-.44.59-.72v-2.67c-.67.36-1.16.63-1.46.83-.3.2-.53.42-.68.66-.15.24-.23.56-.23.94,0,.43.09.74.27.95.18.21.42.31.7.31s.57-.1.81-.3Z"/><path d="m203.97,211.8h1.08v.89c.29-.32.61-.57.96-.75.35-.18.72-.27,1.1-.27.43,0,.75.16.98.48.23.32.34.77.34,1.35v6.88h-1.08v-6.65c0-.44-.07-.75-.2-.94s-.34-.28-.62-.28c-.24,0-.48.07-.74.22s-.5.34-.74.59v7.06h-1.08v-8.57Z"/><path d="m212.96,219.57l3.23-4.96c.04-.06.08-.11.11-.16s.06-.09.08-.12c.41-.63.7-1.17.9-1.6.19-.43.29-.94.29-1.53,0-.65-.13-1.16-.4-1.52s-.67-.54-1.2-.54c-.69,0-1.17.22-1.44.66s-.4,1.06-.4,1.85v.27h-1.08v-.3c0-1.13.23-1.97.69-2.54.46-.56,1.19-.85,2.19-.85.89,0,1.57.26,2.03.79.46.53.7,1.28.7,2.26,0,.46-.06.89-.19,1.29-.13.41-.28.77-.47,1.09s-.44.74-.76,1.24l-3,4.54h4.17v.92h-5.45v-.8Z"/><path d="m220.41,216.98v-5.22c0-2.34.95-3.52,2.85-3.52s2.88,1.17,2.88,3.52v5.22c0,1.12-.22,1.99-.67,2.61-.45.62-1.18.94-2.21.94-1.9,0-2.85-1.18-2.85-3.55Zm4.21,1.99c.27-.46.4-1.1.4-1.9v-5.38c0-.81-.13-1.44-.39-1.9-.26-.45-.72-.68-1.37-.68s-1.1.23-1.36.68c-.26.46-.39,1.09-.39,1.9v5.38c0,1.73.58,2.6,1.75,2.6.64,0,1.1-.23,1.36-.7Z"/><path d="m229.59,209.81c-.1.14-.3.27-.62.38-.31.11-.72.25-1.24.41v-.88c.36-.1.73-.27,1.13-.5.4-.24.71-.53.95-.86h.88v12.02h-1.1v-10.56Z"/><path d="m234.08,219.7c-.42-.54-.63-1.35-.63-2.43h1.08c0,.78.12,1.37.36,1.77s.66.59,1.27.59c.65,0,1.09-.24,1.32-.72.23-.48.34-1.26.34-2.34,0-.74-.05-1.33-.16-1.76-.1-.43-.28-.74-.52-.93s-.57-.29-.97-.29c-.64,0-1.16.33-1.56.99h-.91v-6.23h4.67l-.02,1.02h-3.69l-.06,4.17c.43-.53,1.04-.8,1.84-.8.86,0,1.48.31,1.87.94.39.63.58,1.55.58,2.75,0,1.35-.22,2.36-.65,3.04-.43.68-1.15,1.02-2.14,1.02s-1.62-.27-2.04-.81Z"/><path d="m243.82,219.71c-.34-.53-.5-1.34-.5-2.44v-2.37c0-1.1.17-1.91.5-2.44.34-.53.93-.79,1.78-.79s1.46.27,1.8.79c.34.53.5,1.34.5,2.44v2.37c0,1.1-.17,1.91-.5,2.44-.34.53-.94.79-1.8.79s-1.44-.27-1.78-.79Zm2.57-.3c.17-.19.28-.44.33-.77.05-.32.07-.76.07-1.31v-2.49c0-.55-.02-.99-.07-1.31-.05-.32-.16-.58-.33-.76-.17-.19-.44-.28-.79-.28s-.62.09-.79.28-.28.44-.33.76c-.05.32-.07.76-.07,1.31v2.49c0,.55.02.99.07,1.31.05.32.16.58.33.77.17.19.43.28.79.28s.62-.09.79-.28Z"/><path d="m250.08,220.08c-.34-.28-.56-.66-.68-1.14-.11-.48-.17-1.09-.17-1.82v-2c0-.83.07-1.49.2-1.99s.37-.86.7-1.1c.33-.24.8-.36,1.4-.36.84,0,1.41.23,1.72.69.31.46.46,1.15.46,2.06v.42h-1.01v-.42c0-.51-.04-.9-.11-1.17-.07-.28-.2-.47-.36-.59-.17-.11-.4-.17-.7-.17-.34,0-.59.08-.76.24-.17.16-.29.41-.36.75-.06.34-.1.83-.1,1.48v2.4c0,.59.03,1.06.1,1.39.07.34.19.58.37.73.18.15.43.22.76.22s.59-.07.75-.22.27-.36.33-.65c.05-.29.08-.69.08-1.2v-.48h1.01v.42c0,.64-.06,1.17-.17,1.59-.11.42-.33.75-.65.99-.32.24-.77.36-1.36.36-.63,0-1.12-.14-1.45-.42Z"/><path d="m255.18,208.36h1.08v4.35c.64-.69,1.34-1.04,2.09-1.04.43,0,.75.16.98.48.23.32.34.77.34,1.35v6.88h-1.1v-6.65c0-.44-.07-.75-.2-.94s-.34-.28-.62-.28c-.24,0-.49.07-.75.22-.26.15-.51.35-.75.59v7.05h-1.08v-12.02Z"/><path d="m264.2,219.57l3.23-4.96c.04-.06.08-.11.11-.16s.06-.09.08-.12c.41-.63.7-1.17.9-1.6.19-.43.29-.94.29-1.53,0-.65-.13-1.16-.4-1.52s-.67-.54-1.2-.54c-.69,0-1.17.22-1.44.66s-.4,1.06-.4,1.85v.27h-1.08v-.3c0-1.13.23-1.97.69-2.54.46-.56,1.19-.85,2.19-.85.89,0,1.57.26,2.03.79.46.53.7,1.28.7,2.26,0,.46-.06.89-.19,1.29-.13.41-.28.77-.47,1.09s-.44.74-.76,1.24l-3,4.54h4.17v.92h-5.45v-.8Z"/><path d="m271.65,216.98v-5.22c0-2.34.95-3.52,2.85-3.52s2.88,1.17,2.88,3.52v5.22c0,1.12-.22,1.99-.67,2.61-.45.62-1.18.94-2.21.94-1.9,0-2.85-1.18-2.85-3.55Zm4.21,1.99c.27-.46.4-1.1.4-1.9v-5.38c0-.81-.13-1.44-.39-1.9-.26-.45-.72-.68-1.37-.68s-1.1.23-1.36.68c-.26.46-.39,1.09-.39,1.9v5.38c0,1.73.58,2.6,1.75,2.6.64,0,1.1-.23,1.36-.7Z"/><path d="m280.83,209.81c-.1.14-.3.27-.62.38-.31.11-.72.25-1.24.41v-.88c.36-.1.73-.27,1.13-.5.4-.24.71-.53.95-.86h.88v12.02h-1.1v-10.56Z"/><path d="m287.86,209.23h-3.63v-.88h4.75v.53l-2.39,11.48h-1.07l2.34-11.14Z"/></svg>